<svg xmlns="http://www.w3.org/2000/svg" xmlns:xlink="http://www.w3.org/1999/xlink" width="1000" zoomAndPan="magnify" viewBox="0 0 750 374.999991" height="500" preserveAspectRatio="xMidYMid meet" version="1.0"><defs><filter x="0%" y="0%" width="100%" height="100%" id="dbfef4b1ae"><feColorMatrix values="0 0 0 0 1 0 0 0 0 1 0 0 0 0 1 0 0 0 1 0" color-interpolation-filters="sRGB"/></filter><g/><mask id="976eb97657"><g filter="url(#dbfef4b1ae)"><rect x="-75" width="900" fill="#000000" y="-37.499999" height="449.999989" fill-opacity="0.87"/></g></mask><clipPath id="3d012b4db0"><path d="M 0 0 L 750 0 L 750 375 L 0 375 Z M 0 0 " clip-rule="nonzero"/></clipPath><clipPath id="285c85be57"><rect x="0" width="750" y="0" height="375"/></clipPath><clipPath id="34e4461336"><rect x="0" width="750" y="0" height="375"/></clipPath><clipPath id="d0502704c1"><path d="M 0 0.570312 L 750 0.570312 L 750 308 L 0 308 Z M 0 0.570312 " clip-rule="nonzero"/></clipPath><clipPath id="04b8e1f396"><path d="M 0 0.570312 L 750 0.570312 L 750 308 L 0 308 Z M 0 0.570312 " clip-rule="nonzero"/></clipPath><clipPath id="bd1bb3cffc"><path d="M 0 2.613281 L 750 2.613281 L 750 308 L 0 308 Z M 0 2.613281 " clip-rule="nonzero"/></clipPath><linearGradient x1="1101.56299" gradientTransform="matrix(0.340394, 0, 0, 0.340524, -0.160783, 141.320486)" y1="-407.333991" x2="1101.56299" gradientUnits="userSpaceOnUse" y2="489.478855" id="061431d66a"><stop stop-opacity="1" stop-color="rgb(52.159119%, 51.759338%, 53.729248%)" offset="0"/><stop stop-opacity="1" stop-color="rgb(52.159119%, 51.759338%, 53.729248%)" offset="0.25"/><stop stop-opacity="1" stop-color="rgb(52.159119%, 51.759338%, 53.729248%)" offset="0.375"/><stop stop-opacity="1" stop-color="rgb(52.159119%, 51.759338%, 53.729248%)" offset="0.4375"/><stop stop-opacity="1" stop-color="rgb(52.159119%, 51.759338%, 53.729248%)" offset="0.453125"/><stop stop-opacity="1" stop-color="rgb(52.172852%, 51.773071%, 53.742981%)" offset="0.460938"/><stop stop-opacity="1" stop-color="rgb(54.626465%, 54.176331%, 56.297302%)" offset="0.464844"/><stop stop-opacity="1" stop-color="rgb(57.064819%, 56.565857%, 58.836365%)" offset="0.46875"/><stop stop-opacity="1" stop-color="rgb(59.503174%, 58.955383%, 61.373901%)" offset="0.472656"/><stop stop-opacity="1" stop-color="rgb(61.943054%, 61.34491%, 63.912964%)" offset="0.476563"/><stop stop-opacity="1" stop-color="rgb(64.381409%, 63.734436%, 66.4505%)" offset="0.480469"/><stop stop-opacity="1" stop-color="rgb(66.821289%, 66.123962%, 68.989563%)" offset="0.484375"/><stop stop-opacity="1" stop-color="rgb(69.259644%, 68.511963%, 71.528625%)" offset="0.488281"/><stop stop-opacity="1" stop-color="rgb(71.697998%, 70.901489%, 74.067688%)" offset="0.492188"/><stop stop-opacity="1" stop-color="rgb(74.136353%, 73.291016%, 76.605225%)" offset="0.496094"/><stop stop-opacity="1" stop-color="rgb(76.576233%, 75.680542%, 79.144287%)" offset="0.5"/><stop stop-opacity="1" stop-color="rgb(79.014587%, 78.070068%, 81.681824%)" offset="0.503906"/><stop stop-opacity="1" stop-color="rgb(81.454468%, 80.459595%, 84.220886%)" offset="0.507812"/><stop stop-opacity="1" stop-color="rgb(83.892822%, 82.849121%, 86.758423%)" offset="0.511719"/><stop stop-opacity="1" stop-color="rgb(86.332703%, 85.238647%, 89.297485%)" offset="0.515625"/><stop stop-opacity="1" stop-color="rgb(88.150024%, 87.019348%, 91.189575%)" offset="0.519531"/><stop stop-opacity="1" stop-color="rgb(89.968872%, 88.801575%, 93.083191%)" offset="0.523438"/><stop stop-opacity="1" stop-color="rgb(87.528992%, 86.412048%, 90.544128%)" offset="0.527344"/><stop stop-opacity="1" stop-color="rgb(85.090637%, 84.022522%, 88.006592%)" offset="0.53125"/><stop stop-opacity="1" stop-color="rgb(82.650757%, 81.632996%, 85.467529%)" offset="0.535156"/><stop stop-opacity="1" stop-color="rgb(80.212402%, 79.243469%, 82.928467%)" offset="0.539062"/><stop stop-opacity="1" stop-color="rgb(77.774048%, 76.853943%, 80.389404%)" offset="0.542969"/><stop stop-opacity="1" stop-color="rgb(75.335693%, 74.464417%, 77.851868%)" offset="0.546875"/><stop stop-opacity="1" stop-color="rgb(72.895813%, 72.07489%, 75.312805%)" offset="0.550781"/><stop stop-opacity="1" stop-color="rgb(70.457458%, 69.685364%, 72.775269%)" offset="0.554688"/><stop stop-opacity="1" stop-color="rgb(68.017578%, 67.295837%, 70.236206%)" offset="0.558594"/><stop stop-opacity="1" stop-color="rgb(65.579224%, 64.907837%, 67.698669%)" offset="0.5625"/><stop stop-opacity="1" stop-color="rgb(63.140869%, 62.518311%, 65.159607%)" offset="0.566406"/><stop stop-opacity="1" stop-color="rgb(60.702515%, 60.128784%, 62.620544%)" offset="0.570313"/><stop stop-opacity="1" stop-color="rgb(58.262634%, 57.739258%, 60.081482%)" offset="0.574219"/><stop stop-opacity="1" stop-color="rgb(55.82428%, 55.349731%, 57.543945%)" offset="0.578125"/><stop stop-opacity="1" stop-color="rgb(54.31366%, 53.881836%, 55.932617%)" offset="0.582031"/><stop stop-opacity="1" stop-color="rgb(52.80304%, 52.415466%, 54.322815%)" offset="0.585938"/><stop stop-opacity="1" stop-color="rgb(54.096985%, 53.733826%, 55.517578%)" offset="0.589844"/><stop stop-opacity="1" stop-color="rgb(55.39093%, 55.053711%, 56.712341%)" offset="0.59375"/><stop stop-opacity="1" stop-color="rgb(56.684875%, 56.373596%, 57.905579%)" offset="0.597656"/><stop stop-opacity="1" stop-color="rgb(57.978821%, 57.693481%, 59.100342%)" offset="0.601563"/><stop stop-opacity="1" stop-color="rgb(59.272766%, 59.011841%, 60.295105%)" offset="0.605469"/><stop stop-opacity="1" stop-color="rgb(60.566711%, 60.331726%, 61.489868%)" offset="0.609375"/><stop stop-opacity="1" stop-color="rgb(61.860657%, 61.650085%, 62.683105%)" offset="0.613281"/><stop stop-opacity="1" stop-color="rgb(63.154602%, 62.969971%, 63.877869%)" offset="0.617188"/><stop stop-opacity="1" stop-color="rgb(64.448547%, 64.289856%, 65.072632%)" offset="0.621094"/><stop stop-opacity="1" stop-color="rgb(65.742493%, 65.609741%, 66.267395%)" offset="0.625"/><stop stop-opacity="1" stop-color="rgb(67.036438%, 66.928101%, 67.460632%)" offset="0.628906"/><stop stop-opacity="1" stop-color="rgb(68.330383%, 68.247986%, 68.655396%)" offset="0.632812"/><stop stop-opacity="1" stop-color="rgb(69.624329%, 69.567871%, 69.850159%)" offset="0.636719"/><stop stop-opacity="1" stop-color="rgb(70.9198%, 70.887756%, 71.044922%)" offset="0.640625"/><stop stop-opacity="1" stop-color="rgb(71.255493%, 71.229553%, 71.354675%)" offset="0.644531"/><stop stop-opacity="1" stop-color="rgb(71.591187%, 71.572876%, 71.664429%)" offset="0.648438"/><stop stop-opacity="1" stop-color="rgb(70.297241%, 70.252991%, 70.469666%)" offset="0.652344"/><stop stop-opacity="1" stop-color="rgb(69.003296%, 68.933105%, 69.276428%)" offset="0.65625"/><stop stop-opacity="1" stop-color="rgb(67.709351%, 67.61322%, 68.081665%)" offset="0.660156"/><stop stop-opacity="1" stop-color="rgb(66.415405%, 66.294861%, 66.886902%)" offset="0.664062"/><stop stop-opacity="1" stop-color="rgb(65.12146%, 64.974976%, 65.692139%)" offset="0.667969"/><stop stop-opacity="1" stop-color="rgb(63.827515%, 63.656616%, 64.498901%)" offset="0.671875"/><stop stop-opacity="1" stop-color="rgb(62.533569%, 62.336731%, 63.304138%)" offset="0.675781"/><stop stop-opacity="1" stop-color="rgb(61.239624%, 61.016846%, 62.109375%)" offset="0.679688"/><stop stop-opacity="1" stop-color="rgb(59.945679%, 59.69696%, 60.914612%)" offset="0.683594"/><stop stop-opacity="1" stop-color="rgb(58.651733%, 58.378601%, 59.721375%)" offset="0.6875"/><stop stop-opacity="1" stop-color="rgb(57.357788%, 57.058716%, 58.526611%)" offset="0.691406"/><stop stop-opacity="1" stop-color="rgb(56.063843%, 55.740356%, 57.331848%)" offset="0.695312"/><stop stop-opacity="1" stop-color="rgb(54.768372%, 54.420471%, 56.137085%)" offset="0.699219"/><stop stop-opacity="1" stop-color="rgb(53.474426%, 53.100586%, 54.943848%)" offset="0.703125"/><stop stop-opacity="1" stop-color="rgb(54.138184%, 53.677368%, 55.780029%)" offset="0.707031"/><stop stop-opacity="1" stop-color="rgb(54.801941%, 54.25415%, 56.616211%)" offset="0.710938"/><stop stop-opacity="1" stop-color="rgb(57.489014%, 56.793213%, 59.552002%)" offset="0.714844"/><stop stop-opacity="1" stop-color="rgb(60.176086%, 59.332275%, 62.489319%)" offset="0.71875"/><stop stop-opacity="1" stop-color="rgb(62.863159%, 61.869812%, 65.42511%)" offset="0.722656"/><stop stop-opacity="1" stop-color="rgb(65.551758%, 64.408875%, 68.362427%)" offset="0.726562"/><stop stop-opacity="1" stop-color="rgb(68.238831%, 66.946411%, 71.298218%)" offset="0.730469"/><stop stop-opacity="1" stop-color="rgb(70.927429%, 69.485474%, 74.234009%)" offset="0.734375"/><stop stop-opacity="1" stop-color="rgb(73.614502%, 72.024536%, 77.1698%)" offset="0.738281"/><stop stop-opacity="1" stop-color="rgb(76.303101%, 74.563599%, 80.107117%)" offset="0.742188"/><stop stop-opacity="1" stop-color="rgb(78.990173%, 77.101135%, 83.042908%)" offset="0.746094"/><stop stop-opacity="1" stop-color="rgb(81.678772%, 79.640198%, 85.980225%)" offset="0.75"/><stop stop-opacity="1" stop-color="rgb(84.365845%, 82.177734%, 88.916016%)" offset="0.753906"/><stop stop-opacity="1" stop-color="rgb(87.052917%, 84.716797%, 91.853333%)" offset="0.757813"/><stop stop-opacity="1" stop-color="rgb(89.73999%, 87.255859%, 94.789124%)" offset="0.761719"/><stop stop-opacity="1" stop-color="rgb(92.428589%, 89.794922%, 97.72644%)" offset="0.765625"/><stop stop-opacity="1" stop-color="rgb(93.469238%, 90.776062%, 98.86322%)" offset="0.769531"/><stop stop-opacity="1" stop-color="rgb(94.509888%, 91.758728%, 100%)" offset="0.773438"/><stop stop-opacity="1" stop-color="rgb(94.509888%, 91.758728%, 100%)" offset="0.78125"/><stop stop-opacity="1" stop-color="rgb(94.509888%, 91.758728%, 100%)" offset="0.8125"/><stop stop-opacity="1" stop-color="rgb(94.509888%, 91.758728%, 100%)" offset="0.875"/><stop stop-opacity="1" stop-color="rgb(94.509888%, 91.758728%, 100%)" offset="1"/></linearGradient><clipPath id="0363c30f79"><rect x="0" width="750" y="0" height="308"/></clipPath><clipPath id="5b92ffbaaa"><path d="M 0 0.570312 L 750 0.570312 L 750 308 L 0 308 Z M 0 0.570312 " clip-rule="nonzero"/></clipPath><clipPath id="98a7c3b65b"><rect x="0" width="750" y="0" height="308"/></clipPath><clipPath id="96b5d3f96e"><rect x="0" width="750" y="0" height="308"/></clipPath><mask id="6e99aa1486"><g filter="url(#dbfef4b1ae)"><g transform="matrix(1, 0, 0, 1, 0, 0)"><g clip-path="url(#96b5d3f96e)"><g clip-path="url(#5b92ffbaaa)"><g transform="matrix(1, 0, 0, 1, 0, 0)"><g clip-path="url(#98a7c3b65b)"><g fill="#000000" fill-opacity="1"><g transform="translate(139.849574, 219.462068)"><g><path d="M 22.71875 -50.171875 L 39.890625 -5.90625 C 40.597656 -4.125 41.394531 -2.941406 42.28125 -2.359375 C 43.175781 -1.773438 44 -1.457031 44.75 -1.40625 L 44.75 0 C 43.8125 -0.09375 42.660156 -0.148438 41.296875 -0.171875 C 39.941406 -0.203125 38.582031 -0.21875 37.21875 -0.21875 C 35.382812 -0.21875 33.671875 -0.203125 32.078125 -0.171875 C 30.484375 -0.148438 29.195312 -0.09375 28.21875 0 L 28.21875 -1.40625 C 30.601562 -1.5 32.125 -1.910156 32.78125 -2.640625 C 33.4375 -3.367188 33.296875 -4.925781 32.359375 -7.3125 L 19.28125 -42.28125 L 20.40625 -43.203125 L 8.15625 -11.390625 C 7.40625 -9.515625 6.957031 -7.929688 6.8125 -6.640625 C 6.675781 -5.359375 6.804688 -4.34375 7.203125 -3.59375 C 7.609375 -2.84375 8.289062 -2.300781 9.25 -1.96875 C 10.207031 -1.644531 11.414062 -1.457031 12.875 -1.40625 L 12.875 0 C 11.5625 -0.09375 10.1875 -0.148438 8.75 -0.171875 C 7.320312 -0.203125 6 -0.21875 4.78125 -0.21875 C 3.613281 -0.21875 2.617188 -0.203125 1.796875 -0.171875 C 0.972656 -0.148438 0.207031 -0.09375 -0.5 0 L -0.5 -1.40625 C 0.445312 -1.644531 1.410156 -2.195312 2.390625 -3.0625 C 3.378906 -3.925781 4.269531 -5.414062 5.0625 -7.53125 L 21.59375 -50.171875 C 21.78125 -50.171875 21.96875 -50.171875 22.15625 -50.171875 C 22.34375 -50.171875 22.53125 -50.171875 22.71875 -50.171875 Z M 31.3125 -20.265625 L 31.3125 -18.859375 L 10.34375 -18.859375 L 11.046875 -20.265625 Z M 31.3125 -20.265625 "/></g></g></g><g fill="#000000" fill-opacity="1"><g transform="translate(182.059717, 219.462068)"><g><path d="M 33.984375 -37.015625 L 33.984375 -7.59375 C 33.984375 -5.488281 34.367188 -3.929688 35.140625 -2.921875 C 35.921875 -1.910156 37.316406 -1.40625 39.328125 -1.40625 L 39.328125 0.078125 C 37.878906 -0.0664062 36.425781 -0.140625 34.96875 -0.140625 C 33.601562 -0.140625 32.300781 -0.0703125 31.0625 0.0625 C 29.820312 0.207031 28.6875 0.46875 27.65625 0.84375 L 27.65625 -7.453125 C 26.476562 -4.410156 24.820312 -2.242188 22.6875 -0.953125 C 20.550781 0.335938 18.359375 0.984375 16.109375 0.984375 C 14.472656 0.984375 13.039062 0.75 11.8125 0.28125 C 10.59375 -0.1875 9.585938 -0.84375 8.796875 -1.6875 C 7.898438 -2.625 7.285156 -3.84375 6.953125 -5.34375 C 6.628906 -6.84375 6.46875 -8.695312 6.46875 -10.90625 L 6.46875 -28.5625 C 6.46875 -30.675781 6.09375 -32.234375 5.34375 -33.234375 C 4.59375 -34.242188 3.1875 -34.75 1.125 -34.75 L 1.125 -36.234375 C 2.625 -36.097656 4.078125 -36.03125 5.484375 -36.03125 C 6.847656 -36.03125 8.148438 -36.109375 9.390625 -36.265625 C 10.628906 -36.429688 11.769531 -36.679688 12.8125 -37.015625 L 12.8125 -9.359375 C 12.8125 -7.898438 12.90625 -6.5625 13.09375 -5.34375 C 13.28125 -4.125 13.75 -3.140625 14.5 -2.390625 C 15.25 -1.640625 16.46875 -1.265625 18.15625 -1.265625 C 19.976562 -1.265625 21.601562 -1.828125 23.03125 -2.953125 C 24.46875 -4.078125 25.597656 -5.597656 26.421875 -7.515625 C 27.242188 -9.441406 27.65625 -11.601562 27.65625 -14 L 27.65625 -28.5625 C 27.65625 -30.675781 27.28125 -32.234375 26.53125 -33.234375 C 25.78125 -34.242188 24.367188 -34.75 22.296875 -34.75 L 22.296875 -36.234375 C 23.804688 -36.097656 25.265625 -36.03125 26.671875 -36.03125 C 28.023438 -36.03125 29.320312 -36.109375 30.5625 -36.265625 C 31.8125 -36.429688 32.953125 -36.679688 33.984375 -37.015625 Z M 33.984375 -37.015625 "/></g></g></g><g fill="#000000" fill-opacity="1"><g transform="translate(222.93324, 219.462068)"><g><path d="M 13.375 -47.921875 L 13.375 -36.171875 L 23.78125 -36.171875 L 23.78125 -34.75 L 13.375 -34.75 L 13.375 -7.53125 C 13.375 -5.320312 13.769531 -3.769531 14.5625 -2.875 C 15.363281 -1.988281 16.46875 -1.546875 17.875 -1.546875 C 19.28125 -1.546875 20.5 -2.117188 21.53125 -3.265625 C 22.5625 -4.421875 23.453125 -6.359375 24.203125 -9.078125 L 25.609375 -8.71875 C 25.140625 -6 24.210938 -3.703125 22.828125 -1.828125 C 21.441406 0.046875 19.320312 0.984375 16.46875 0.984375 C 14.875 0.984375 13.554688 0.78125 12.515625 0.375 C 11.484375 -0.0195312 10.570312 -0.59375 9.78125 -1.34375 C 8.75 -2.414062 8.03125 -3.703125 7.625 -5.203125 C 7.226562 -6.703125 7.03125 -8.695312 7.03125 -11.1875 L 7.03125 -34.75 L 0.28125 -34.75 L 0.28125 -36.171875 L 7.03125 -36.171875 L 7.03125 -46.9375 C 8.207031 -46.976562 9.332031 -47.066406 10.40625 -47.203125 C 11.488281 -47.347656 12.476562 -47.585938 13.375 -47.921875 Z M 13.375 -47.921875 "/></g></g></g><g fill="#000000" fill-opacity="1"><g transform="translate(247.837239, 219.462068)"><g><path d="M 19.28125 -37.21875 C 22.28125 -37.21875 24.972656 -36.5625 27.359375 -35.25 C 29.753906 -33.9375 31.664062 -31.875 33.09375 -29.0625 C 34.53125 -26.25 35.25 -22.585938 35.25 -18.078125 C 35.25 -13.578125 34.53125 -9.929688 33.09375 -7.140625 C 31.664062 -4.347656 29.753906 -2.296875 27.359375 -0.984375 C 24.972656 0.328125 22.28125 0.984375 19.28125 0.984375 C 16.320312 0.984375 13.632812 0.328125 11.21875 -0.984375 C 8.800781 -2.296875 6.878906 -4.347656 5.453125 -7.140625 C 4.023438 -9.929688 3.3125 -13.578125 3.3125 -18.078125 C 3.3125 -22.585938 4.023438 -26.25 5.453125 -29.0625 C 6.878906 -31.875 8.800781 -33.9375 11.21875 -35.25 C 13.632812 -36.5625 16.320312 -37.21875 19.28125 -37.21875 Z M 19.28125 -35.8125 C 16.601562 -35.8125 14.40625 -34.425781 12.6875 -31.65625 C 10.976562 -28.894531 10.125 -24.367188 10.125 -18.078125 C 10.125 -11.796875 10.976562 -7.28125 12.6875 -4.53125 C 14.40625 -1.789062 16.601562 -0.421875 19.28125 -0.421875 C 21.945312 -0.421875 24.132812 -1.789062 25.84375 -4.53125 C 27.5625 -7.28125 28.421875 -11.796875 28.421875 -18.078125 C 28.421875 -24.367188 27.5625 -28.894531 25.84375 -31.65625 C 24.132812 -34.425781 21.945312 -35.8125 19.28125 -35.8125 Z M 19.28125 -35.8125 "/></g></g></g><g fill="#000000" fill-opacity="1"><g transform="translate(286.389207, 219.462068)"><g><path d="M 25.265625 -37.21875 C 26.898438 -37.21875 28.328125 -36.984375 29.546875 -36.515625 C 30.765625 -36.046875 31.773438 -35.390625 32.578125 -34.546875 C 33.460938 -33.609375 34.066406 -32.390625 34.390625 -30.890625 C 34.722656 -29.390625 34.890625 -27.535156 34.890625 -25.328125 L 34.890625 -6.546875 C 34.890625 -4.578125 35.300781 -3.238281 36.125 -2.53125 C 36.945312 -1.832031 38.320312 -1.484375 40.25 -1.484375 L 40.25 0 C 39.445312 -0.0507812 38.222656 -0.109375 36.578125 -0.171875 C 34.941406 -0.242188 33.347656 -0.28125 31.796875 -0.28125 C 30.253906 -0.28125 28.742188 -0.242188 27.265625 -0.171875 C 25.785156 -0.109375 24.671875 -0.0507812 23.921875 0 L 23.921875 -1.484375 C 25.609375 -1.484375 26.800781 -1.832031 27.5 -2.53125 C 28.207031 -3.238281 28.5625 -4.578125 28.5625 -6.546875 L 28.5625 -26.875 C 28.5625 -28.332031 28.46875 -29.671875 28.28125 -30.890625 C 28.09375 -32.109375 27.625 -33.09375 26.875 -33.84375 C 26.125 -34.59375 24.90625 -34.96875 23.21875 -34.96875 C 21.382812 -34.96875 19.753906 -34.40625 18.328125 -33.28125 C 16.898438 -32.15625 15.773438 -30.617188 14.953125 -28.671875 C 14.128906 -26.722656 13.71875 -24.550781 13.71875 -22.15625 L 13.71875 -6.546875 C 13.71875 -4.578125 14.066406 -3.238281 14.765625 -2.53125 C 15.472656 -1.832031 16.671875 -1.484375 18.359375 -1.484375 L 18.359375 0 C 17.609375 -0.0507812 16.492188 -0.109375 15.015625 -0.171875 C 13.546875 -0.242188 12.035156 -0.28125 10.484375 -0.28125 C 8.929688 -0.28125 7.332031 -0.242188 5.6875 -0.171875 C 4.050781 -0.109375 2.835938 -0.0507812 2.046875 0 L 2.046875 -1.484375 C 3.960938 -1.484375 5.332031 -1.832031 6.15625 -2.53125 C 6.976562 -3.238281 7.390625 -4.578125 7.390625 -6.546875 L 7.390625 -28.5625 C 7.390625 -30.675781 7.015625 -32.234375 6.265625 -33.234375 C 5.515625 -34.242188 4.109375 -34.75 2.046875 -34.75 L 2.046875 -36.234375 C 3.546875 -36.097656 5 -36.03125 6.40625 -36.03125 C 7.757812 -36.03125 9.054688 -36.109375 10.296875 -36.265625 C 11.546875 -36.429688 12.6875 -36.679688 13.71875 -37.015625 L 13.71875 -28.703125 C 14.9375 -31.753906 16.597656 -33.9375 18.703125 -35.25 C 20.816406 -36.5625 23.003906 -37.21875 25.265625 -37.21875 Z M 46.4375 -37.21875 C 48.082031 -37.21875 49.515625 -36.984375 50.734375 -36.515625 C 51.953125 -36.046875 52.957031 -35.390625 53.75 -34.546875 C 54.644531 -33.609375 55.253906 -32.390625 55.578125 -30.890625 C 55.910156 -29.390625 56.078125 -27.535156 56.078125 -25.328125 L 56.078125 -6.546875 C 56.078125 -4.578125 56.488281 -3.238281 57.3125 -2.53125 C 58.132812 -1.832031 59.503906 -1.484375 61.421875 -1.484375 L 61.421875 0 C 60.628906 -0.0507812 59.410156 -0.109375 57.765625 -0.171875 C 56.117188 -0.242188 54.523438 -0.28125 52.984375 -0.28125 C 51.429688 -0.28125 49.914062 -0.242188 48.4375 -0.171875 C 46.957031 -0.109375 45.84375 -0.0507812 45.09375 0 L 45.09375 -1.484375 C 46.789062 -1.484375 47.988281 -1.832031 48.6875 -2.53125 C 49.394531 -3.238281 49.75 -4.578125 49.75 -6.546875 L 49.75 -26.875 C 49.75 -28.332031 49.65625 -29.671875 49.46875 -30.890625 C 49.28125 -32.109375 48.8125 -33.09375 48.0625 -33.84375 C 47.3125 -34.59375 46.085938 -34.96875 44.390625 -34.96875 C 42.566406 -34.96875 40.9375 -34.40625 39.5 -33.28125 C 38.070312 -32.15625 36.945312 -30.628906 36.125 -28.703125 C 35.300781 -26.785156 34.890625 -24.628906 34.890625 -22.234375 L 34.6875 -28.78125 C 35.957031 -32.007812 37.671875 -34.222656 39.828125 -35.421875 C 41.984375 -36.617188 44.1875 -37.21875 46.4375 -37.21875 Z M 46.4375 -37.21875 "/></g></g></g><g fill="#000000" fill-opacity="1"><g transform="translate(348.860279, 219.462068)"><g><path d="M 12.03125 0.5 C 10.101562 0.5 8.4375 0.132812 7.03125 -0.59375 C 5.625 -1.320312 4.554688 -2.34375 3.828125 -3.65625 C 3.109375 -4.96875 2.75 -6.492188 2.75 -8.234375 C 2.75 -10.296875 3.226562 -11.984375 4.1875 -13.296875 C 5.144531 -14.609375 6.375 -15.660156 7.875 -16.453125 C 9.375 -17.253906 10.957031 -17.925781 12.625 -18.46875 C 14.289062 -19.007812 15.875 -19.523438 17.375 -20.015625 C 18.875 -20.503906 20.101562 -21.078125 21.0625 -21.734375 C 22.03125 -22.390625 22.515625 -23.257812 22.515625 -24.34375 L 22.515625 -28.703125 C 22.515625 -30.671875 22.21875 -32.171875 21.625 -33.203125 C 21.039062 -34.234375 20.253906 -34.925781 19.265625 -35.28125 C 18.285156 -35.632812 17.1875 -35.8125 15.96875 -35.8125 C 14.800781 -35.8125 13.546875 -35.644531 12.203125 -35.3125 C 10.867188 -34.988281 9.800781 -34.3125 9 -33.28125 C 9.894531 -33.09375 10.671875 -32.625 11.328125 -31.875 C 11.984375 -31.125 12.3125 -30.160156 12.3125 -28.984375 C 12.3125 -27.816406 11.9375 -26.890625 11.1875 -26.203125 C 10.4375 -25.523438 9.472656 -25.1875 8.296875 -25.1875 C 6.941406 -25.1875 5.945312 -25.617188 5.3125 -26.484375 C 4.675781 -27.359375 4.359375 -28.332031 4.359375 -29.40625 C 4.359375 -30.625 4.660156 -31.609375 5.265625 -32.359375 C 5.878906 -33.109375 6.65625 -33.8125 7.59375 -34.46875 C 8.675781 -35.226562 10.070312 -35.875 11.78125 -36.40625 C 13.5 -36.945312 15.4375 -37.21875 17.59375 -37.21875 C 19.507812 -37.21875 21.148438 -36.992188 22.515625 -36.546875 C 23.878906 -36.109375 25.003906 -35.460938 25.890625 -34.609375 C 27.109375 -33.484375 27.90625 -32.113281 28.28125 -30.5 C 28.65625 -28.882812 28.84375 -26.953125 28.84375 -24.703125 L 28.84375 -5.140625 C 28.84375 -3.960938 29.019531 -3.113281 29.375 -2.59375 C 29.726562 -2.082031 30.28125 -1.828125 31.03125 -1.828125 C 31.539062 -1.828125 32.03125 -1.941406 32.5 -2.171875 C 32.96875 -2.410156 33.53125 -2.789062 34.1875 -3.3125 L 34.96875 -2.109375 C 33.976562 -1.359375 33.035156 -0.734375 32.140625 -0.234375 C 31.253906 0.253906 30.0625 0.5 28.5625 0.5 C 27.207031 0.5 26.082031 0.265625 25.1875 -0.203125 C 24.300781 -0.679688 23.632812 -1.375 23.1875 -2.28125 C 22.738281 -3.195312 22.515625 -4.359375 22.515625 -5.765625 C 21.242188 -3.660156 19.726562 -2.085938 17.96875 -1.046875 C 16.21875 -0.015625 14.238281 0.5 12.03125 0.5 Z M 14.5625 -2.328125 C 16.113281 -2.328125 17.554688 -2.769531 18.890625 -3.65625 C 20.222656 -4.550781 21.429688 -5.890625 22.515625 -7.671875 L 22.515625 -21.453125 C 21.953125 -20.660156 21.128906 -19.992188 20.046875 -19.453125 C 18.972656 -18.910156 17.800781 -18.367188 16.53125 -17.828125 C 15.269531 -17.296875 14.0625 -16.664062 12.90625 -15.9375 C 11.757812 -15.207031 10.8125 -14.253906 10.0625 -13.078125 C 9.3125 -11.910156 8.9375 -10.390625 8.9375 -8.515625 C 8.9375 -6.640625 9.441406 -5.140625 10.453125 -4.015625 C 11.460938 -2.890625 12.832031 -2.328125 14.5625 -2.328125 Z M 14.5625 -2.328125 "/></g></g></g><g fill="#000000" fill-opacity="1"><g transform="translate(383.894727, 219.462068)"><g><path d="M 12.03125 0.5 C 10.101562 0.5 8.4375 0.132812 7.03125 -0.59375 C 5.625 -1.320312 4.554688 -2.34375 3.828125 -3.65625 C 3.109375 -4.96875 2.75 -6.492188 2.75 -8.234375 C 2.75 -10.296875 3.226562 -11.984375 4.1875 -13.296875 C 5.144531 -14.609375 6.375 -15.660156 7.875 -16.453125 C 9.375 -17.253906 10.957031 -17.925781 12.625 -18.46875 C 14.289062 -19.007812 15.875 -19.523438 17.375 -20.015625 C 18.875 -20.503906 20.101562 -21.078125 21.0625 -21.734375 C 22.03125 -22.390625 22.515625 -23.257812 22.515625 -24.34375 L 22.515625 -28.703125 C 22.515625 -30.671875 22.21875 -32.171875 21.625 -33.203125 C 21.039062 -34.234375 20.253906 -34.925781 19.265625 -35.28125 C 18.285156 -35.632812 17.1875 -35.8125 15.96875 -35.8125 C 14.800781 -35.8125 13.546875 -35.644531 12.203125 -35.3125 C 10.867188 -34.988281 9.800781 -34.3125 9 -33.28125 C 9.894531 -33.09375 10.671875 -32.625 11.328125 -31.875 C 11.984375 -31.125 12.3125 -30.160156 12.3125 -28.984375 C 12.3125 -27.816406 11.9375 -26.890625 11.1875 -26.203125 C 10.4375 -25.523438 9.472656 -25.1875 8.296875 -25.1875 C 6.941406 -25.1875 5.945312 -25.617188 5.3125 -26.484375 C 4.675781 -27.359375 4.359375 -28.332031 4.359375 -29.40625 C 4.359375 -30.625 4.660156 -31.609375 5.265625 -32.359375 C 5.878906 -33.109375 6.65625 -33.8125 7.59375 -34.46875 C 8.675781 -35.226562 10.070312 -35.875 11.78125 -36.40625 C 13.5 -36.945312 15.4375 -37.21875 17.59375 -37.21875 C 19.507812 -37.21875 21.148438 -36.992188 22.515625 -36.546875 C 23.878906 -36.109375 25.003906 -35.460938 25.890625 -34.609375 C 27.109375 -33.484375 27.90625 -32.113281 28.28125 -30.5 C 28.65625 -28.882812 28.84375 -26.953125 28.84375 -24.703125 L 28.84375 -5.140625 C 28.84375 -3.960938 29.019531 -3.113281 29.375 -2.59375 C 29.726562 -2.082031 30.28125 -1.828125 31.03125 -1.828125 C 31.539062 -1.828125 32.03125 -1.941406 32.5 -2.171875 C 32.96875 -2.410156 33.53125 -2.789062 34.1875 -3.3125 L 34.96875 -2.109375 C 33.976562 -1.359375 33.035156 -0.734375 32.140625 -0.234375 C 31.253906 0.253906 30.0625 0.5 28.5625 0.5 C 27.207031 0.5 26.082031 0.265625 25.1875 -0.203125 C 24.300781 -0.679688 23.632812 -1.375 23.1875 -2.28125 C 22.738281 -3.195312 22.515625 -4.359375 22.515625 -5.765625 C 21.242188 -3.660156 19.726562 -2.085938 17.96875 -1.046875 C 16.21875 -0.015625 14.238281 0.5 12.03125 0.5 Z M 14.5625 -2.328125 C 16.113281 -2.328125 17.554688 -2.769531 18.890625 -3.65625 C 20.222656 -4.550781 21.429688 -5.890625 22.515625 -7.671875 L 22.515625 -21.453125 C 21.953125 -20.660156 21.128906 -19.992188 20.046875 -19.453125 C 18.972656 -18.910156 17.800781 -18.367188 16.53125 -17.828125 C 15.269531 -17.296875 14.0625 -16.664062 12.90625 -15.9375 C 11.757812 -15.207031 10.8125 -14.253906 10.0625 -13.078125 C 9.3125 -11.910156 8.9375 -10.390625 8.9375 -8.515625 C 8.9375 -6.640625 9.441406 -5.140625 10.453125 -4.015625 C 11.460938 -2.890625 12.832031 -2.328125 14.5625 -2.328125 Z M 14.5625 -2.328125 "/></g></g></g><g fill="#000000" fill-opacity="1"><g transform="translate(418.929176, 219.462068)"><g><path d="M 13.234375 -55.15625 L 13.234375 -6.546875 C 13.234375 -4.578125 13.640625 -3.238281 14.453125 -2.53125 C 15.273438 -1.832031 16.648438 -1.484375 18.578125 -1.484375 L 18.578125 0 C 17.773438 -0.0507812 16.566406 -0.109375 14.953125 -0.171875 C 13.335938 -0.242188 11.707031 -0.28125 10.0625 -0.28125 C 8.46875 -0.28125 6.847656 -0.242188 5.203125 -0.171875 C 3.566406 -0.109375 2.347656 -0.0507812 1.546875 0 L 1.546875 -1.484375 C 3.472656 -1.484375 4.84375 -1.832031 5.65625 -2.53125 C 6.476562 -3.238281 6.890625 -4.578125 6.890625 -6.546875 L 6.890625 -46.71875 C 6.890625 -48.832031 6.515625 -50.390625 5.765625 -51.390625 C 5.015625 -52.398438 3.609375 -52.90625 1.546875 -52.90625 L 1.546875 -54.390625 C 3.046875 -54.242188 4.5 -54.171875 5.90625 -54.171875 C 7.269531 -54.171875 8.570312 -54.253906 9.8125 -54.421875 C 11.050781 -54.585938 12.191406 -54.832031 13.234375 -55.15625 Z M 13.234375 -55.15625 "/></g></g></g><g fill="#000000" fill-opacity="1"><g transform="translate(439.049368, 219.462068)"><g><path d="M 12.03125 0.5 C 10.101562 0.5 8.4375 0.132812 7.03125 -0.59375 C 5.625 -1.320312 4.554688 -2.34375 3.828125 -3.65625 C 3.109375 -4.96875 2.75 -6.492188 2.75 -8.234375 C 2.75 -10.296875 3.226562 -11.984375 4.1875 -13.296875 C 5.144531 -14.609375 6.375 -15.660156 7.875 -16.453125 C 9.375 -17.253906 10.957031 -17.925781 12.625 -18.46875 C 14.289062 -19.007812 15.875 -19.523438 17.375 -20.015625 C 18.875 -20.503906 20.101562 -21.078125 21.0625 -21.734375 C 22.03125 -22.390625 22.515625 -23.257812 22.515625 -24.34375 L 22.515625 -28.703125 C 22.515625 -30.671875 22.21875 -32.171875 21.625 -33.203125 C 21.039062 -34.234375 20.253906 -34.925781 19.265625 -35.28125 C 18.285156 -35.632812 17.1875 -35.8125 15.96875 -35.8125 C 14.800781 -35.8125 13.546875 -35.644531 12.203125 -35.3125 C 10.867188 -34.988281 9.800781 -34.3125 9 -33.28125 C 9.894531 -33.09375 10.671875 -32.625 11.328125 -31.875 C 11.984375 -31.125 12.3125 -30.160156 12.3125 -28.984375 C 12.3125 -27.816406 11.9375 -26.890625 11.1875 -26.203125 C 10.4375 -25.523438 9.472656 -25.1875 8.296875 -25.1875 C 6.941406 -25.1875 5.945312 -25.617188 5.3125 -26.484375 C 4.675781 -27.359375 4.359375 -28.332031 4.359375 -29.40625 C 4.359375 -30.625 4.660156 -31.609375 5.265625 -32.359375 C 5.878906 -33.109375 6.65625 -33.8125 7.59375 -34.46875 C 8.675781 -35.226562 10.070312 -35.875 11.78125 -36.40625 C 13.5 -36.945312 15.4375 -37.21875 17.59375 -37.21875 C 19.507812 -37.21875 21.148438 -36.992188 22.515625 -36.546875 C 23.878906 -36.109375 25.003906 -35.460938 25.890625 -34.609375 C 27.109375 -33.484375 27.90625 -32.113281 28.28125 -30.5 C 28.65625 -28.882812 28.84375 -26.953125 28.84375 -24.703125 L 28.84375 -5.140625 C 28.84375 -3.960938 29.019531 -3.113281 29.375 -2.59375 C 29.726562 -2.082031 30.28125 -1.828125 31.03125 -1.828125 C 31.539062 -1.828125 32.03125 -1.941406 32.5 -2.171875 C 32.96875 -2.410156 33.53125 -2.789062 34.1875 -3.3125 L 34.96875 -2.109375 C 33.976562 -1.359375 33.035156 -0.734375 32.140625 -0.234375 C 31.253906 0.253906 30.0625 0.5 28.5625 0.5 C 27.207031 0.5 26.082031 0.265625 25.1875 -0.203125 C 24.300781 -0.679688 23.632812 -1.375 23.1875 -2.28125 C 22.738281 -3.195312 22.515625 -4.359375 22.515625 -5.765625 C 21.242188 -3.660156 19.726562 -2.085938 17.96875 -1.046875 C 16.21875 -0.015625 14.238281 0.5 12.03125 0.5 Z M 14.5625 -2.328125 C 16.113281 -2.328125 17.554688 -2.769531 18.890625 -3.65625 C 20.222656 -4.550781 21.429688 -5.890625 22.515625 -7.671875 L 22.515625 -21.453125 C 21.953125 -20.660156 21.128906 -19.992188 20.046875 -19.453125 C 18.972656 -18.910156 17.800781 -18.367188 16.53125 -17.828125 C 15.269531 -17.296875 14.0625 -16.664062 12.90625 -15.9375 C 11.757812 -15.207031 10.8125 -14.253906 10.0625 -13.078125 C 9.3125 -11.910156 8.9375 -10.390625 8.9375 -8.515625 C 8.9375 -6.640625 9.441406 -5.140625 10.453125 -4.015625 C 11.460938 -2.890625 12.832031 -2.328125 14.5625 -2.328125 Z M 14.5625 -2.328125 "/></g></g></g><g fill="#000000" fill-opacity="1"><g transform="translate(474.083817, 219.462068)"><g><path d="M 12.03125 0.5 C 10.101562 0.5 8.4375 0.132812 7.03125 -0.59375 C 5.625 -1.320312 4.554688 -2.34375 3.828125 -3.65625 C 3.109375 -4.96875 2.75 -6.492188 2.75 -8.234375 C 2.75 -10.296875 3.226562 -11.984375 4.1875 -13.296875 C 5.144531 -14.609375 6.375 -15.660156 7.875 -16.453125 C 9.375 -17.253906 10.957031 -17.925781 12.625 -18.46875 C 14.289062 -19.007812 15.875 -19.523438 17.375 -20.015625 C 18.875 -20.503906 20.101562 -21.078125 21.0625 -21.734375 C 22.03125 -22.390625 22.515625 -23.257812 22.515625 -24.34375 L 22.515625 -28.703125 C 22.515625 -30.671875 22.21875 -32.171875 21.625 -33.203125 C 21.039062 -34.234375 20.253906 -34.925781 19.265625 -35.28125 C 18.285156 -35.632812 17.1875 -35.8125 15.96875 -35.8125 C 14.800781 -35.8125 13.546875 -35.644531 12.203125 -35.3125 C 10.867188 -34.988281 9.800781 -34.3125 9 -33.28125 C 9.894531 -33.09375 10.671875 -32.625 11.328125 -31.875 C 11.984375 -31.125 12.3125 -30.160156 12.3125 -28.984375 C 12.3125 -27.816406 11.9375 -26.890625 11.1875 -26.203125 C 10.4375 -25.523438 9.472656 -25.1875 8.296875 -25.1875 C 6.941406 -25.1875 5.945312 -25.617188 5.3125 -26.484375 C 4.675781 -27.359375 4.359375 -28.332031 4.359375 -29.40625 C 4.359375 -30.625 4.660156 -31.609375 5.265625 -32.359375 C 5.878906 -33.109375 6.65625 -33.8125 7.59375 -34.46875 C 8.675781 -35.226562 10.070312 -35.875 11.78125 -36.40625 C 13.5 -36.945312 15.4375 -37.21875 17.59375 -37.21875 C 19.507812 -37.21875 21.148438 -36.992188 22.515625 -36.546875 C 23.878906 -36.109375 25.003906 -35.460938 25.890625 -34.609375 C 27.109375 -33.484375 27.90625 -32.113281 28.28125 -30.5 C 28.65625 -28.882812 28.84375 -26.953125 28.84375 -24.703125 L 28.84375 -5.140625 C 28.84375 -3.960938 29.019531 -3.113281 29.375 -2.59375 C 29.726562 -2.082031 30.28125 -1.828125 31.03125 -1.828125 C 31.539062 -1.828125 32.03125 -1.941406 32.5 -2.171875 C 32.96875 -2.410156 33.53125 -2.789062 34.1875 -3.3125 L 34.96875 -2.109375 C 33.976562 -1.359375 33.035156 -0.734375 32.140625 -0.234375 C 31.253906 0.253906 30.0625 0.5 28.5625 0.5 C 27.207031 0.5 26.082031 0.265625 25.1875 -0.203125 C 24.300781 -0.679688 23.632812 -1.375 23.1875 -2.28125 C 22.738281 -3.195312 22.515625 -4.359375 22.515625 -5.765625 C 21.242188 -3.660156 19.726562 -2.085938 17.96875 -1.046875 C 16.21875 -0.015625 14.238281 0.5 12.03125 0.5 Z M 14.5625 -2.328125 C 16.113281 -2.328125 17.554688 -2.769531 18.890625 -3.65625 C 20.222656 -4.550781 21.429688 -5.890625 22.515625 -7.671875 L 22.515625 -21.453125 C 21.953125 -20.660156 21.128906 -19.992188 20.046875 -19.453125 C 18.972656 -18.910156 17.800781 -18.367188 16.53125 -17.828125 C 15.269531 -17.296875 14.0625 -16.664062 12.90625 -15.9375 C 11.757812 -15.207031 10.8125 -14.253906 10.0625 -13.078125 C 9.3125 -11.910156 8.9375 -10.390625 8.9375 -8.515625 C 8.9375 -6.640625 9.441406 -5.140625 10.453125 -4.015625 C 11.460938 -2.890625 12.832031 -2.328125 14.5625 -2.328125 Z M 14.5625 -2.328125 "/></g></g></g><g fill="#000000" fill-opacity="1"><g transform="translate(509.118265, 219.462068)"><g><path d="M 25.265625 -37.21875 C 26.898438 -37.21875 28.328125 -36.984375 29.546875 -36.515625 C 30.765625 -36.046875 31.773438 -35.390625 32.578125 -34.546875 C 33.460938 -33.609375 34.066406 -32.390625 34.390625 -30.890625 C 34.722656 -29.390625 34.890625 -27.535156 34.890625 -25.328125 L 34.890625 -6.546875 C 34.890625 -4.578125 35.300781 -3.238281 36.125 -2.53125 C 36.945312 -1.832031 38.320312 -1.484375 40.25 -1.484375 L 40.25 0 C 39.445312 -0.0507812 38.222656 -0.109375 36.578125 -0.171875 C 34.941406 -0.242188 33.347656 -0.28125 31.796875 -0.28125 C 30.253906 -0.28125 28.742188 -0.242188 27.265625 -0.171875 C 25.785156 -0.109375 24.671875 -0.0507812 23.921875 0 L 23.921875 -1.484375 C 25.609375 -1.484375 26.800781 -1.832031 27.5 -2.53125 C 28.207031 -3.238281 28.5625 -4.578125 28.5625 -6.546875 L 28.5625 -26.875 C 28.5625 -28.332031 28.46875 -29.671875 28.28125 -30.890625 C 28.09375 -32.109375 27.625 -33.09375 26.875 -33.84375 C 26.125 -34.59375 24.90625 -34.96875 23.21875 -34.96875 C 21.382812 -34.96875 19.753906 -34.40625 18.328125 -33.28125 C 16.898438 -32.15625 15.773438 -30.617188 14.953125 -28.671875 C 14.128906 -26.722656 13.71875 -24.550781 13.71875 -22.15625 L 13.71875 -6.546875 C 13.71875 -4.578125 14.066406 -3.238281 14.765625 -2.53125 C 15.472656 -1.832031 16.671875 -1.484375 18.359375 -1.484375 L 18.359375 0 C 17.609375 -0.0507812 16.492188 -0.109375 15.015625 -0.171875 C 13.546875 -0.242188 12.035156 -0.28125 10.484375 -0.28125 C 8.929688 -0.28125 7.332031 -0.242188 5.6875 -0.171875 C 4.050781 -0.109375 2.835938 -0.0507812 2.046875 0 L 2.046875 -1.484375 C 3.960938 -1.484375 5.332031 -1.832031 6.15625 -2.53125 C 6.976562 -3.238281 7.390625 -4.578125 7.390625 -6.546875 L 7.390625 -28.5625 C 7.390625 -30.675781 7.015625 -32.234375 6.265625 -33.234375 C 5.515625 -34.242188 4.109375 -34.75 2.046875 -34.75 L 2.046875 -36.234375 C 3.546875 -36.097656 5 -36.03125 6.40625 -36.03125 C 7.757812 -36.03125 9.054688 -36.109375 10.296875 -36.265625 C 11.546875 -36.429688 12.6875 -36.679688 13.71875 -37.015625 L 13.71875 -28.703125 C 14.9375 -31.753906 16.597656 -33.9375 18.703125 -35.25 C 20.816406 -36.5625 23.003906 -37.21875 25.265625 -37.21875 Z M 46.4375 -37.21875 C 48.082031 -37.21875 49.515625 -36.984375 50.734375 -36.515625 C 51.953125 -36.046875 52.957031 -35.390625 53.75 -34.546875 C 54.644531 -33.609375 55.253906 -32.390625 55.578125 -30.890625 C 55.910156 -29.390625 56.078125 -27.535156 56.078125 -25.328125 L 56.078125 -6.546875 C 56.078125 -4.578125 56.488281 -3.238281 57.3125 -2.53125 C 58.132812 -1.832031 59.503906 -1.484375 61.421875 -1.484375 L 61.421875 0 C 60.628906 -0.0507812 59.410156 -0.109375 57.765625 -0.171875 C 56.117188 -0.242188 54.523438 -0.28125 52.984375 -0.28125 C 51.429688 -0.28125 49.914062 -0.242188 48.4375 -0.171875 C 46.957031 -0.109375 45.84375 -0.0507812 45.09375 0 L 45.09375 -1.484375 C 46.789062 -1.484375 47.988281 -1.832031 48.6875 -2.53125 C 49.394531 -3.238281 49.75 -4.578125 49.75 -6.546875 L 49.75 -26.875 C 49.75 -28.332031 49.65625 -29.671875 49.46875 -30.890625 C 49.28125 -32.109375 48.8125 -33.09375 48.0625 -33.84375 C 47.3125 -34.59375 46.085938 -34.96875 44.390625 -34.96875 C 42.566406 -34.96875 40.9375 -34.40625 39.5 -33.28125 C 38.070312 -32.15625 36.945312 -30.628906 36.125 -28.703125 C 35.300781 -26.785156 34.890625 -24.628906 34.890625 -22.234375 L 34.6875 -28.78125 C 35.957031 -32.007812 37.671875 -34.222656 39.828125 -35.421875 C 41.984375 -36.617188 44.1875 -37.21875 46.4375 -37.21875 Z M 46.4375 -37.21875 "/></g></g></g><g fill="#000000" fill-opacity="1"><g transform="translate(571.589337, 219.462068)"><g><path d="M 19.28125 -37.21875 C 22.28125 -37.21875 24.972656 -36.5625 27.359375 -35.25 C 29.753906 -33.9375 31.664062 -31.875 33.09375 -29.0625 C 34.53125 -26.25 35.25 -22.585938 35.25 -18.078125 C 35.25 -13.578125 34.53125 -9.929688 33.09375 -7.140625 C 31.664062 -4.347656 29.753906 -2.296875 27.359375 -0.984375 C 24.972656 0.328125 22.28125 0.984375 19.28125 0.984375 C 16.320312 0.984375 13.632812 0.328125 11.21875 -0.984375 C 8.800781 -2.296875 6.878906 -4.347656 5.453125 -7.140625 C 4.023438 -9.929688 3.3125 -13.578125 3.3125 -18.078125 C 3.3125 -22.585938 4.023438 -26.25 5.453125 -29.0625 C 6.878906 -31.875 8.800781 -33.9375 11.21875 -35.25 C 13.632812 -36.5625 16.320312 -37.21875 19.28125 -37.21875 Z M 19.28125 -35.8125 C 16.601562 -35.8125 14.40625 -34.425781 12.6875 -31.65625 C 10.976562 -28.894531 10.125 -24.367188 10.125 -18.078125 C 10.125 -11.796875 10.976562 -7.28125 12.6875 -4.53125 C 14.40625 -1.789062 16.601562 -0.421875 19.28125 -0.421875 C 21.945312 -0.421875 24.132812 -1.789062 25.84375 -4.53125 C 27.5625 -7.28125 28.421875 -11.796875 28.421875 -18.078125 C 28.421875 -24.367188 27.5625 -28.894531 25.84375 -31.65625 C 24.132812 -34.425781 21.945312 -35.8125 19.28125 -35.8125 Z M 19.28125 -35.8125 "/></g></g></g></g></g></g></g></g></g></mask><clipPath id="94d433aa30"><path d="M 0 2.613281 L 750 2.613281 L 750 308 L 0 308 Z M 0 2.613281 " clip-rule="nonzero"/></clipPath><clipPath id="2271a5d998"><rect x="0" width="750" y="0" height="308"/></clipPath><clipPath id="26f3154c28"><rect x="0" width="750" y="0" height="308"/></clipPath><clipPath id="5653eb9cf2"><rect x="0" width="750" y="0" height="308"/></clipPath><clipPath id="340b208fd7"><path d="M 1.078125 0.351562 L 554.953125 0.351562 L 554.953125 270.351562 L 1.078125 270.351562 Z M 1.078125 0.351562 " clip-rule="nonzero"/></clipPath><clipPath id="1ade2a22a7"><path d="M 0.078125 0.351562 L 553.953125 0.351562 L 553.953125 270.351562 L 0.078125 270.351562 Z M 0.078125 0.351562 " clip-rule="nonzero"/></clipPath><clipPath id="205dbf519d"><path d="M 0.078125 1.851562 L 553.578125 1.851562 L 553.578125 268.101562 L 0.078125 268.101562 Z M 0.078125 1.851562 " clip-rule="nonzero"/></clipPath><linearGradient x1="471.453" gradientTransform="matrix(0.374942, 0, 0, 0.374825, 100.063805, 100.304711)" y1="-262.66599" x2="471.453" gradientUnits="userSpaceOnUse" y2="447.66598" id="b55311eb9c"><stop stop-opacity="1" stop-color="rgb(52.159119%, 51.759338%, 53.729248%)" offset="0"/><stop stop-opacity="1" stop-color="rgb(52.159119%, 51.759338%, 53.729248%)" offset="0.25"/><stop stop-opacity="1" stop-color="rgb(52.159119%, 51.759338%, 53.729248%)" offset="0.375"/><stop stop-opacity="1" stop-color="rgb(55.012512%, 54.554749%, 56.700134%)" offset="0.378906"/><stop stop-opacity="1" stop-color="rgb(57.867432%, 57.351685%, 59.671021%)" offset="0.382812"/><stop stop-opacity="1" stop-color="rgb(60.879517%, 60.302734%, 62.805176%)" offset="0.386719"/><stop stop-opacity="1" stop-color="rgb(63.891602%, 63.253784%, 65.940857%)" offset="0.390625"/><stop stop-opacity="1" stop-color="rgb(66.903687%, 66.204834%, 69.076538%)" offset="0.394531"/><stop stop-opacity="1" stop-color="rgb(69.915771%, 69.155884%, 72.212219%)" offset="0.398438"/><stop stop-opacity="1" stop-color="rgb(72.927856%, 72.106934%, 75.346375%)" offset="0.402344"/><stop stop-opacity="1" stop-color="rgb(75.939941%, 75.057983%, 78.482056%)" offset="0.40625"/><stop stop-opacity="1" stop-color="rgb(78.952026%, 78.009033%, 81.617737%)" offset="0.410156"/><stop stop-opacity="1" stop-color="rgb(81.965637%, 80.960083%, 84.753418%)" offset="0.414062"/><stop stop-opacity="1" stop-color="rgb(84.977722%, 83.911133%, 87.887573%)" offset="0.417969"/><stop stop-opacity="1" stop-color="rgb(87.989807%, 86.862183%, 91.023254%)" offset="0.421875"/><stop stop-opacity="1" stop-color="rgb(87.576294%, 86.457825%, 90.592957%)" offset="0.425781"/><stop stop-opacity="1" stop-color="rgb(87.164307%, 86.053467%, 90.164185%)" offset="0.429688"/><stop stop-opacity="1" stop-color="rgb(84.152222%, 83.102417%, 87.028503%)" offset="0.433594"/><stop stop-opacity="1" stop-color="rgb(81.140137%, 80.151367%, 83.894348%)" offset="0.4375"/><stop stop-opacity="1" stop-color="rgb(78.128052%, 77.200317%, 80.758667%)" offset="0.441406"/><stop stop-opacity="1" stop-color="rgb(75.115967%, 74.249268%, 77.622986%)" offset="0.445313"/><stop stop-opacity="1" stop-color="rgb(72.103882%, 71.298218%, 74.487305%)" offset="0.449219"/><stop stop-opacity="1" stop-color="rgb(69.091797%, 68.347168%, 71.353149%)" offset="0.453125"/><stop stop-opacity="1" stop-color="rgb(66.078186%, 65.396118%, 68.217468%)" offset="0.457031"/><stop stop-opacity="1" stop-color="rgb(63.066101%, 62.445068%, 65.081787%)" offset="0.460938"/><stop stop-opacity="1" stop-color="rgb(60.054016%, 59.494019%, 61.946106%)" offset="0.464844"/><stop stop-opacity="1" stop-color="rgb(57.041931%, 56.542969%, 58.811951%)" offset="0.46875"/><stop stop-opacity="1" stop-color="rgb(54.902649%, 54.460144%, 56.549072%)" offset="0.472656"/><stop stop-opacity="1" stop-color="rgb(52.764893%, 52.377319%, 54.28772%)" offset="0.476563"/><stop stop-opacity="1" stop-color="rgb(54.362488%, 54.006958%, 55.763245%)" offset="0.480469"/><stop stop-opacity="1" stop-color="rgb(55.961609%, 55.636597%, 57.23877%)" offset="0.484375"/><stop stop-opacity="1" stop-color="rgb(57.559204%, 57.264709%, 58.712769%)" offset="0.488281"/><stop stop-opacity="1" stop-color="rgb(59.158325%, 58.894348%, 60.188293%)" offset="0.492188"/><stop stop-opacity="1" stop-color="rgb(60.75592%, 60.523987%, 61.663818%)" offset="0.496094"/><stop stop-opacity="1" stop-color="rgb(62.353516%, 62.153625%, 63.139343%)" offset="0.5"/><stop stop-opacity="1" stop-color="rgb(63.951111%, 63.783264%, 64.613342%)" offset="0.503906"/><stop stop-opacity="1" stop-color="rgb(65.550232%, 65.412903%, 66.088867%)" offset="0.507812"/><stop stop-opacity="1" stop-color="rgb(67.147827%, 67.042542%, 67.564392%)" offset="0.511719"/><stop stop-opacity="1" stop-color="rgb(68.746948%, 68.67218%, 69.039917%)" offset="0.515625"/><stop stop-opacity="1" stop-color="rgb(70.344543%, 70.301819%, 70.513916%)" offset="0.519531"/><stop stop-opacity="1" stop-color="rgb(71.943665%, 71.931458%, 71.989441%)" offset="0.523438"/><stop stop-opacity="1" stop-color="rgb(70.950317%, 70.9198%, 71.073914%)" offset="0.527344"/><stop stop-opacity="1" stop-color="rgb(69.958496%, 69.908142%, 70.158386%)" offset="0.53125"/><stop stop-opacity="1" stop-color="rgb(68.359375%, 68.278503%, 68.682861%)" offset="0.535156"/><stop stop-opacity="1" stop-color="rgb(66.76178%, 66.648865%, 67.207336%)" offset="0.539062"/><stop stop-opacity="1" stop-color="rgb(65.162659%, 65.019226%, 65.731812%)" offset="0.542969"/><stop stop-opacity="1" stop-color="rgb(63.565063%, 63.389587%, 64.257812%)" offset="0.546875"/><stop stop-opacity="1" stop-color="rgb(61.967468%, 61.759949%, 62.782288%)" offset="0.550781"/><stop stop-opacity="1" stop-color="rgb(60.369873%, 60.13031%, 61.306763%)" offset="0.554688"/><stop stop-opacity="1" stop-color="rgb(58.770752%, 58.500671%, 59.831238%)" offset="0.558594"/><stop stop-opacity="1" stop-color="rgb(57.173157%, 56.871033%, 58.357239%)" offset="0.5625"/><stop stop-opacity="1" stop-color="rgb(55.574036%, 55.241394%, 56.881714%)" offset="0.566406"/><stop stop-opacity="1" stop-color="rgb(53.97644%, 53.611755%, 55.406189%)" offset="0.570312"/><stop stop-opacity="1" stop-color="rgb(54.499817%, 54.037476%, 56.132507%)" offset="0.574219"/><stop stop-opacity="1" stop-color="rgb(55.024719%, 54.464722%, 56.858826%)" offset="0.578125"/><stop stop-opacity="1" stop-color="rgb(58.343506%, 57.600403%, 60.48584%)" offset="0.582031"/><stop stop-opacity="1" stop-color="rgb(61.662292%, 60.736084%, 64.112854%)" offset="0.585938"/><stop stop-opacity="1" stop-color="rgb(64.981079%, 63.870239%, 67.739868%)" offset="0.589844"/><stop stop-opacity="1" stop-color="rgb(68.301392%, 67.00592%, 71.366882%)" offset="0.59375"/><stop stop-opacity="1" stop-color="rgb(71.620178%, 70.141602%, 74.992371%)" offset="0.597656"/><stop stop-opacity="1" stop-color="rgb(74.940491%, 73.277283%, 78.619385%)" offset="0.601562"/><stop stop-opacity="1" stop-color="rgb(78.259277%, 76.411438%, 82.246399%)" offset="0.605469"/><stop stop-opacity="1" stop-color="rgb(81.57959%, 79.547119%, 85.873413%)" offset="0.609375"/><stop stop-opacity="1" stop-color="rgb(84.898376%, 82.6828%, 89.500427%)" offset="0.613281"/><stop stop-opacity="1" stop-color="rgb(88.218689%, 85.818481%, 93.127441%)" offset="0.617188"/><stop stop-opacity="1" stop-color="rgb(91.363525%, 88.787842%, 96.563721%)" offset="0.621094"/><stop stop-opacity="1" stop-color="rgb(94.509888%, 91.758728%, 100%)" offset="0.625"/><stop stop-opacity="1" stop-color="rgb(94.509888%, 91.758728%, 100%)" offset="0.75"/><stop stop-opacity="1" stop-color="rgb(94.509888%, 91.758728%, 100%)" offset="1"/></linearGradient><clipPath id="2dc30be73f"><rect x="0" width="554" y="0" height="271"/></clipPath><clipPath id="47d0e922d8"><path d="M 0.078125 0.351562 L 553.953125 0.351562 L 553.953125 270.351562 L 0.078125 270.351562 Z M 0.078125 0.351562 " clip-rule="nonzero"/></clipPath><clipPath id="e6d1a56659"><rect x="0" width="554" y="0" height="271"/></clipPath><clipPath id="0f5e1ba2ec"><rect x="0" width="554" y="0" height="271"/></clipPath><mask id="10037bcf4c"><g filter="url(#dbfef4b1ae)"><g><g clip-path="url(#0f5e1ba2ec)"><g clip-path="url(#47d0e922d8)"><g><g clip-path="url(#e6d1a56659)"><g fill="#000000" fill-opacity="1"><g transform="translate(100.20361, 155.60099)"><g><path d="M 23 0 L 23 -1 C 24.132812 -1.0625 24.992188 -1.191406 25.578125 -1.390625 C 26.160156 -1.597656 26.550781 -2 26.75 -2.59375 C 26.945312 -3.195312 27.046875 -4.097656 27.046875 -5.296875 L 27.046875 -30.09375 C 27.046875 -31.332031 26.945312 -32.242188 26.75 -32.828125 C 26.550781 -33.410156 26.160156 -33.804688 25.578125 -34.015625 C 24.992188 -34.234375 24.132812 -34.363281 23 -34.40625 L 23 -35.40625 C 23.769531 -35.363281 24.738281 -35.328125 25.90625 -35.296875 C 27.070312 -35.265625 28.21875 -35.25 29.34375 -35.25 C 30.644531 -35.25 31.863281 -35.265625 33 -35.296875 C 34.132812 -35.328125 35.050781 -35.363281 35.75 -35.40625 L 35.75 -34.40625 C 34.613281 -34.363281 33.753906 -34.234375 33.171875 -34.015625 C 32.585938 -33.804688 32.195312 -33.410156 32 -32.828125 C 31.800781 -32.242188 31.703125 -31.332031 31.703125 -30.09375 L 31.703125 -5.296875 C 31.703125 -4.097656 31.800781 -3.195312 32 -2.59375 C 32.195312 -2 32.585938 -1.597656 33.171875 -1.390625 C 33.753906 -1.191406 34.613281 -1.0625 35.75 -1 L 35.75 0 C 35.050781 -0.0625 34.132812 -0.101562 33 -0.125 C 31.863281 -0.144531 30.644531 -0.15625 29.34375 -0.15625 C 28.21875 -0.15625 27.070312 -0.144531 25.90625 -0.125 C 24.738281 -0.101562 23.769531 -0.0625 23 0 Z M 2.09375 0 L 2.09375 -1 C 3.226562 -1.0625 4.085938 -1.191406 4.671875 -1.390625 C 5.253906 -1.597656 5.644531 -2 5.84375 -2.59375 C 6.050781 -3.195312 6.15625 -4.097656 6.15625 -5.296875 L 6.15625 -30.09375 C 6.15625 -31.332031 6.050781 -32.242188 5.84375 -32.828125 C 5.644531 -33.410156 5.253906 -33.804688 4.671875 -34.015625 C 4.085938 -34.234375 3.226562 -34.363281 2.09375 -34.40625 L 2.09375 -35.40625 C 2.800781 -35.363281 3.71875 -35.328125 4.84375 -35.296875 C 5.976562 -35.265625 7.195312 -35.25 8.5 -35.25 C 9.664062 -35.25 10.820312 -35.265625 11.96875 -35.296875 C 13.125 -35.328125 14.082031 -35.363281 14.84375 -35.40625 L 14.84375 -34.40625 C 13.71875 -34.363281 12.863281 -34.234375 12.28125 -34.015625 C 11.695312 -33.804688 11.300781 -33.410156 11.09375 -32.828125 C 10.894531 -32.242188 10.796875 -31.332031 10.796875 -30.09375 L 10.796875 -5.296875 C 10.796875 -4.097656 10.894531 -3.195312 11.09375 -2.59375 C 11.300781 -2 11.695312 -1.597656 12.28125 -1.390625 C 12.863281 -1.191406 13.71875 -1.0625 14.84375 -1 L 14.84375 0 C 14.082031 -0.0625 13.125 -0.101562 11.96875 -0.125 C 10.820312 -0.144531 9.664062 -0.15625 8.5 -0.15625 C 7.195312 -0.15625 5.976562 -0.144531 4.84375 -0.125 C 3.71875 -0.101562 2.800781 -0.0625 2.09375 0 Z M 9.046875 -17.296875 L 9.046875 -18.296875 L 28.796875 -18.296875 L 28.796875 -17.296875 Z M 9.046875 -17.296875 "/></g></g></g><g fill="#000000" fill-opacity="1"><g transform="translate(137.802152, 155.60099)"><g><path d="M 8.546875 0.34375 C 7.179688 0.34375 6 0.0859375 5 -0.421875 C 4 -0.941406 3.238281 -1.664062 2.71875 -2.59375 C 2.207031 -3.53125 1.953125 -4.613281 1.953125 -5.84375 C 1.953125 -7.3125 2.289062 -8.507812 2.96875 -9.4375 C 3.65625 -10.375 4.53125 -11.125 5.59375 -11.6875 C 6.664062 -12.257812 7.789062 -12.738281 8.96875 -13.125 C 10.15625 -13.507812 11.28125 -13.875 12.34375 -14.21875 C 13.414062 -14.570312 14.289062 -14.984375 14.96875 -15.453125 C 15.65625 -15.921875 16 -16.535156 16 -17.296875 L 16 -20.40625 C 16 -21.800781 15.789062 -22.863281 15.375 -23.59375 C 14.957031 -24.332031 14.398438 -24.828125 13.703125 -25.078125 C 13.003906 -25.328125 12.21875 -25.453125 11.34375 -25.453125 C 10.507812 -25.453125 9.617188 -25.332031 8.671875 -25.09375 C 7.722656 -24.863281 6.96875 -24.382812 6.40625 -23.65625 C 7.03125 -23.519531 7.578125 -23.179688 8.046875 -22.640625 C 8.515625 -22.109375 8.75 -21.425781 8.75 -20.59375 C 8.75 -19.757812 8.484375 -19.101562 7.953125 -18.625 C 7.421875 -18.144531 6.738281 -17.90625 5.90625 -17.90625 C 4.9375 -17.90625 4.222656 -18.210938 3.765625 -18.828125 C 3.316406 -19.441406 3.09375 -20.132812 3.09375 -20.90625 C 3.09375 -21.769531 3.3125 -22.46875 3.75 -23 C 4.1875 -23.53125 4.738281 -24.03125 5.40625 -24.5 C 6.164062 -25.03125 7.15625 -25.488281 8.375 -25.875 C 9.59375 -26.257812 10.96875 -26.453125 12.5 -26.453125 C 13.863281 -26.453125 15.03125 -26.289062 16 -25.96875 C 16.96875 -25.65625 17.769531 -25.195312 18.40625 -24.59375 C 19.269531 -23.800781 19.832031 -22.828125 20.09375 -21.671875 C 20.363281 -20.523438 20.5 -19.148438 20.5 -17.546875 L 20.5 -3.65625 C 20.5 -2.820312 20.625 -2.21875 20.875 -1.84375 C 21.125 -1.476562 21.515625 -1.296875 22.046875 -1.296875 C 22.410156 -1.296875 22.757812 -1.378906 23.09375 -1.546875 C 23.425781 -1.710938 23.828125 -1.976562 24.296875 -2.34375 L 24.84375 -1.5 C 24.144531 -0.96875 23.476562 -0.523438 22.84375 -0.171875 C 22.21875 0.171875 21.367188 0.34375 20.296875 0.34375 C 19.328125 0.34375 18.523438 0.175781 17.890625 -0.15625 C 17.265625 -0.488281 16.789062 -0.976562 16.46875 -1.625 C 16.15625 -2.269531 16 -3.09375 16 -4.09375 C 15.101562 -2.59375 14.03125 -1.476562 12.78125 -0.75 C 11.53125 -0.0195312 10.117188 0.34375 8.546875 0.34375 Z M 10.34375 -1.65625 C 11.445312 -1.65625 12.472656 -1.96875 13.421875 -2.59375 C 14.367188 -3.226562 15.226562 -4.179688 16 -5.453125 L 16 -15.25 C 15.601562 -14.6875 15.019531 -14.210938 14.25 -13.828125 C 13.476562 -13.441406 12.644531 -13.054688 11.75 -12.671875 C 10.851562 -12.285156 9.992188 -11.832031 9.171875 -11.3125 C 8.359375 -10.800781 7.679688 -10.128906 7.140625 -9.296875 C 6.609375 -8.460938 6.34375 -7.378906 6.34375 -6.046875 C 6.34375 -4.710938 6.703125 -3.644531 7.421875 -2.84375 C 8.140625 -2.050781 9.113281 -1.65625 10.34375 -1.65625 Z M 10.34375 -1.65625 "/></g></g></g><g fill="#000000" fill-opacity="1"><g transform="translate(162.451196, 155.60099)"><g><path d="M 10.90625 -25.75 L 10.90625 -24.703125 C 10.070312 -24.703125 9.335938 -24.640625 8.703125 -24.515625 C 8.066406 -24.398438 7.648438 -24.0625 7.453125 -23.5 C 7.253906 -22.9375 7.40625 -21.9375 7.90625 -20.5 L 13.09375 -5.59375 L 12.75 -5.65625 L 20.09375 -25.953125 L 21.09375 -25.546875 L 11.953125 0.25 C 11.816406 0.25 11.679688 0.25 11.546875 0.25 C 11.410156 0.25 11.257812 0.25 11.09375 0.25 L 2.90625 -21.90625 C 2.363281 -23.238281 1.832031 -24.035156 1.3125 -24.296875 C 0.800781 -24.566406 0.363281 -24.703125 0 -24.703125 L 0 -25.75 C 0.664062 -25.644531 1.359375 -25.566406 2.078125 -25.515625 C 2.796875 -25.472656 3.570312 -25.453125 4.40625 -25.453125 C 5.4375 -25.453125 6.523438 -25.484375 7.671875 -25.546875 C 8.828125 -25.617188 9.90625 -25.6875 10.90625 -25.75 Z M 38.34375 -25.75 L 38.34375 -24.75 C 37.71875 -24.6875 37.128906 -24.410156 36.578125 -23.921875 C 36.023438 -23.441406 35.53125 -22.550781 35.09375 -21.25 L 27.84375 0.25 C 27.71875 0.25 27.585938 0.25 27.453125 0.25 C 27.316406 0.25 27.164062 0.25 27 0.25 L 18.953125 -20.203125 L 20.09375 -25.953125 C 20.300781 -25.953125 20.492188 -25.953125 20.671875 -25.953125 C 20.859375 -25.953125 21.050781 -25.953125 21.25 -25.953125 L 29.046875 -5.296875 L 28.65625 -5 L 33.59375 -20.046875 C 33.96875 -21.179688 34.113281 -22.070312 34.03125 -22.71875 C 33.945312 -23.375 33.613281 -23.859375 33.03125 -24.171875 C 32.445312 -24.492188 31.550781 -24.6875 30.34375 -24.75 L 30.34375 -25.75 C 30.945312 -25.71875 31.460938 -25.691406 31.890625 -25.671875 C 32.328125 -25.660156 32.753906 -25.644531 33.171875 -25.625 C 33.585938 -25.601562 34.046875 -25.59375 34.546875 -25.59375 C 35.316406 -25.59375 36.007812 -25.609375 36.625 -25.640625 C 37.238281 -25.679688 37.8125 -25.71875 38.34375 -25.75 Z M 38.34375 -25.75 "/></g></g></g><g fill="#000000" fill-opacity="1"><g transform="translate(199.69975, 155.60099)"><g><path d="M 9.296875 -39.203125 L 9.296875 -4.65625 C 9.296875 -3.25 9.546875 -2.296875 10.046875 -1.796875 C 10.546875 -1.296875 11.394531 -1.046875 12.59375 -1.046875 L 12.59375 0 C 12.0625 -0.03125 11.269531 -0.0703125 10.21875 -0.125 C 9.175781 -0.175781 8.117188 -0.203125 7.046875 -0.203125 C 5.910156 -0.203125 4.757812 -0.175781 3.59375 -0.125 C 2.425781 -0.0703125 1.5625 -0.03125 1 0 L 1 -1.046875 C 2.363281 -1.046875 3.335938 -1.296875 3.921875 -1.796875 C 4.503906 -2.296875 4.796875 -3.25 4.796875 -4.65625 L 4.796875 -33.203125 C 4.796875 -34.703125 4.53125 -35.804688 4 -36.515625 C 3.46875 -37.234375 2.46875 -37.59375 1 -37.59375 L 1 -38.65625 C 2.0625 -38.550781 3.09375 -38.5 4.09375 -38.5 C 5.0625 -38.5 5.988281 -38.554688 6.875 -38.671875 C 7.757812 -38.785156 8.566406 -38.960938 9.296875 -39.203125 Z M 25.203125 -25.75 L 25.203125 -24.75 C 24.367188 -24.6875 23.582031 -24.460938 22.84375 -24.078125 C 22.113281 -23.691406 21.398438 -23.132812 20.703125 -22.40625 L 13.65625 -15 L 14.34375 -16.40625 L 23.65625 -3.65625 C 24.21875 -2.882812 24.753906 -2.28125 25.265625 -1.84375 C 25.785156 -1.414062 26.414062 -1.148438 27.15625 -1.046875 L 27.15625 0 C 26.78125 -0.03125 26.203125 -0.0703125 25.421875 -0.125 C 24.640625 -0.175781 23.863281 -0.203125 23.09375 -0.203125 C 22.0625 -0.203125 21.007812 -0.175781 19.9375 -0.125 C 18.875 -0.0703125 18.078125 -0.03125 17.546875 0 L 17.546875 -1.046875 C 18.210938 -1.046875 18.675781 -1.210938 18.9375 -1.546875 C 19.207031 -1.878906 19.160156 -2.28125 18.796875 -2.75 L 13.046875 -11.15625 C 12.410156 -12.050781 11.832031 -12.628906 11.3125 -12.890625 C 10.800781 -13.160156 10.0625 -13.3125 9.09375 -13.34375 L 9.09375 -14.34375 C 10.164062 -14.476562 11.035156 -14.703125 11.703125 -15.015625 C 12.367188 -15.335938 13 -15.816406 13.59375 -16.453125 L 17.296875 -20.296875 C 18.367188 -21.398438 18.90625 -22.273438 18.90625 -22.921875 C 18.90625 -23.578125 18.5625 -24.046875 17.875 -24.328125 C 17.1875 -24.609375 16.296875 -24.75 15.203125 -24.75 L 15.203125 -25.75 C 16.066406 -25.71875 17.039062 -25.675781 18.125 -25.625 C 19.207031 -25.570312 20.113281 -25.546875 20.84375 -25.546875 C 21.414062 -25.546875 21.96875 -25.550781 22.5 -25.5625 C 23.03125 -25.582031 23.53125 -25.609375 24 -25.640625 C 24.46875 -25.679688 24.867188 -25.71875 25.203125 -25.75 Z M 25.203125 -25.75 "/></g></g></g><g fill="#000000" fill-opacity="1"><g transform="translate(226.598697, 155.60099)"><g/></g></g><g fill="#000000" fill-opacity="1"><g transform="translate(239.04822, 155.60099)"><g><path d="M 18.546875 -36.09375 C 20.742188 -36.09375 22.550781 -35.769531 23.96875 -35.125 C 25.382812 -34.476562 26.644531 -33.71875 27.75 -32.84375 C 28.414062 -32.34375 28.921875 -32.285156 29.265625 -32.671875 C 29.617188 -33.054688 29.863281 -33.96875 30 -35.40625 L 31.15625 -35.40625 C 31.082031 -34.164062 31.03125 -32.660156 31 -30.890625 C 30.96875 -29.128906 30.953125 -26.800781 30.953125 -23.90625 L 29.796875 -23.90625 C 29.566406 -25.332031 29.347656 -26.46875 29.140625 -27.3125 C 28.941406 -28.164062 28.703125 -28.894531 28.421875 -29.5 C 28.140625 -30.101562 27.765625 -30.703125 27.296875 -31.296875 C 26.265625 -32.660156 24.960938 -33.648438 23.390625 -34.265625 C 21.828125 -34.890625 20.179688 -35.203125 18.453125 -35.203125 C 16.816406 -35.203125 15.335938 -34.789062 14.015625 -33.96875 C 12.703125 -33.15625 11.570312 -31.984375 10.625 -30.453125 C 9.675781 -28.921875 8.941406 -27.070312 8.421875 -24.90625 C 7.910156 -22.738281 7.65625 -20.300781 7.65625 -17.59375 C 7.65625 -14.800781 7.9375 -12.328125 8.5 -10.171875 C 9.0625 -8.023438 9.851562 -6.21875 10.875 -4.75 C 11.894531 -3.28125 13.09375 -2.171875 14.46875 -1.421875 C 15.851562 -0.671875 17.347656 -0.296875 18.953125 -0.296875 C 20.453125 -0.296875 22.015625 -0.59375 23.640625 -1.1875 C 25.273438 -1.789062 26.5625 -2.757812 27.5 -4.09375 C 28.226562 -5.0625 28.734375 -6.113281 29.015625 -7.25 C 29.304688 -8.382812 29.566406 -9.96875 29.796875 -12 L 30.953125 -12 C 30.953125 -8.96875 30.96875 -6.523438 31 -4.671875 C 31.03125 -2.828125 31.082031 -1.269531 31.15625 0 L 30 0 C 29.863281 -1.4375 29.632812 -2.335938 29.3125 -2.703125 C 29 -3.066406 28.476562 -3.015625 27.75 -2.546875 C 26.519531 -1.679688 25.210938 -0.921875 23.828125 -0.265625 C 22.441406 0.378906 20.664062 0.703125 18.5 0.703125 C 15.332031 0.703125 12.554688 -0.0078125 10.171875 -1.4375 C 7.785156 -2.875 5.9375 -4.941406 4.625 -7.640625 C 3.3125 -10.347656 2.65625 -13.601562 2.65625 -17.40625 C 2.65625 -21.132812 3.335938 -24.398438 4.703125 -27.203125 C 6.066406 -30.003906 7.941406 -32.1875 10.328125 -33.75 C 12.710938 -35.3125 15.453125 -36.09375 18.546875 -36.09375 Z M 18.546875 -36.09375 "/></g></g></g><g fill="#000000" fill-opacity="1"><g transform="translate(273.446892, 155.60099)"><g><path d="M 13.703125 -26.453125 C 15.835938 -26.453125 17.753906 -25.984375 19.453125 -25.046875 C 21.148438 -24.117188 22.503906 -22.65625 23.515625 -20.65625 C 24.535156 -18.65625 25.046875 -16.050781 25.046875 -12.84375 C 25.046875 -9.644531 24.535156 -7.050781 23.515625 -5.0625 C 22.503906 -3.082031 21.148438 -1.625 19.453125 -0.6875 C 17.753906 0.238281 15.835938 0.703125 13.703125 0.703125 C 11.597656 0.703125 9.6875 0.238281 7.96875 -0.6875 C 6.257812 -1.625 4.894531 -3.082031 3.875 -5.0625 C 2.851562 -7.050781 2.34375 -9.644531 2.34375 -12.84375 C 2.34375 -16.050781 2.851562 -18.65625 3.875 -20.65625 C 4.894531 -22.65625 6.257812 -24.117188 7.96875 -25.046875 C 9.6875 -25.984375 11.597656 -26.453125 13.703125 -26.453125 Z M 13.703125 -25.453125 C 11.796875 -25.453125 10.234375 -24.46875 9.015625 -22.5 C 7.804688 -20.53125 7.203125 -17.3125 7.203125 -12.84375 C 7.203125 -8.382812 7.804688 -5.175781 9.015625 -3.21875 C 10.234375 -1.269531 11.796875 -0.296875 13.703125 -0.296875 C 15.597656 -0.296875 17.15625 -1.269531 18.375 -3.21875 C 19.59375 -5.175781 20.203125 -8.382812 20.203125 -12.84375 C 20.203125 -17.3125 19.59375 -20.53125 18.375 -22.5 C 17.15625 -24.46875 15.597656 -25.453125 13.703125 -25.453125 Z M 13.703125 -25.453125 "/></g></g></g><g fill="#000000" fill-opacity="1"><g transform="translate(300.845831, 155.60099)"><g><path d="M 17.953125 -26.453125 C 19.117188 -26.453125 20.132812 -26.285156 21 -25.953125 C 21.863281 -25.617188 22.582031 -25.148438 23.15625 -24.546875 C 23.78125 -23.878906 24.207031 -23.007812 24.4375 -21.9375 C 24.675781 -20.875 24.796875 -19.5625 24.796875 -18 L 24.796875 -4.65625 C 24.796875 -3.25 25.085938 -2.296875 25.671875 -1.796875 C 26.253906 -1.296875 27.226562 -1.046875 28.59375 -1.046875 L 28.59375 0 C 28.03125 -0.03125 27.164062 -0.0703125 26 -0.125 C 24.832031 -0.175781 23.695312 -0.203125 22.59375 -0.203125 C 21.5 -0.203125 20.425781 -0.175781 19.375 -0.125 C 18.320312 -0.0703125 17.53125 -0.03125 17 0 L 17 -1.046875 C 18.195312 -1.046875 19.046875 -1.296875 19.546875 -1.796875 C 20.046875 -2.296875 20.296875 -3.25 20.296875 -4.65625 L 20.296875 -19.09375 C 20.296875 -20.132812 20.226562 -21.085938 20.09375 -21.953125 C 19.96875 -22.816406 19.632812 -23.515625 19.09375 -24.046875 C 18.5625 -24.578125 17.695312 -24.84375 16.5 -24.84375 C 15.195312 -24.84375 14.035156 -24.441406 13.015625 -23.640625 C 12.003906 -22.847656 11.207031 -21.757812 10.625 -20.375 C 10.039062 -18.988281 9.75 -17.445312 9.75 -15.75 L 9.75 -4.65625 C 9.75 -3.25 10 -2.296875 10.5 -1.796875 C 11 -1.296875 11.847656 -1.046875 13.046875 -1.046875 L 13.046875 0 C 12.515625 -0.03125 11.722656 -0.0703125 10.671875 -0.125 C 9.617188 -0.175781 8.546875 -0.203125 7.453125 -0.203125 C 6.347656 -0.203125 5.210938 -0.175781 4.046875 -0.125 C 2.878906 -0.0703125 2.015625 -0.03125 1.453125 0 L 1.453125 -1.046875 C 2.816406 -1.046875 3.789062 -1.296875 4.375 -1.796875 C 4.957031 -2.296875 5.25 -3.25 5.25 -4.65625 L 5.25 -20.296875 C 5.25 -21.796875 4.984375 -22.90625 4.453125 -23.625 C 3.921875 -24.34375 2.921875 -24.703125 1.453125 -24.703125 L 1.453125 -25.75 C 2.515625 -25.644531 3.546875 -25.59375 4.546875 -25.59375 C 5.515625 -25.59375 6.441406 -25.648438 7.328125 -25.765625 C 8.210938 -25.890625 9.019531 -26.066406 9.75 -26.296875 L 9.75 -20.40625 C 10.613281 -22.570312 11.796875 -24.117188 13.296875 -25.046875 C 14.796875 -25.984375 16.347656 -26.453125 17.953125 -26.453125 Z M 33 -26.453125 C 34.164062 -26.453125 35.179688 -26.285156 36.046875 -25.953125 C 36.910156 -25.617188 37.628906 -25.148438 38.203125 -24.546875 C 38.835938 -23.878906 39.269531 -23.007812 39.5 -21.9375 C 39.726562 -20.875 39.84375 -19.5625 39.84375 -18 L 39.84375 -4.65625 C 39.84375 -3.25 40.132812 -2.296875 40.71875 -1.796875 C 41.300781 -1.296875 42.28125 -1.046875 43.65625 -1.046875 L 43.65625 0 C 43.082031 -0.03125 42.210938 -0.0703125 41.046875 -0.125 C 39.878906 -0.175781 38.75 -0.203125 37.65625 -0.203125 C 36.550781 -0.203125 35.472656 -0.175781 34.421875 -0.125 C 33.367188 -0.0703125 32.578125 -0.03125 32.046875 0 L 32.046875 -1.046875 C 33.242188 -1.046875 34.09375 -1.296875 34.59375 -1.796875 C 35.09375 -2.296875 35.34375 -3.25 35.34375 -4.65625 L 35.34375 -19.09375 C 35.34375 -20.132812 35.273438 -21.085938 35.140625 -21.953125 C 35.015625 -22.816406 34.679688 -23.515625 34.140625 -24.046875 C 33.609375 -24.578125 32.742188 -24.84375 31.546875 -24.84375 C 30.242188 -24.84375 29.082031 -24.441406 28.0625 -23.640625 C 27.050781 -22.847656 26.253906 -21.765625 25.671875 -20.390625 C 25.085938 -19.023438 24.796875 -17.492188 24.796875 -15.796875 L 24.65625 -20.453125 C 25.550781 -22.753906 26.765625 -24.328125 28.296875 -25.171875 C 29.828125 -26.023438 31.394531 -26.453125 33 -26.453125 Z M 33 -26.453125 "/></g></g></g><g fill="#000000" fill-opacity="1"><g transform="translate(345.244121, 155.60099)"><g><path d="M 9.40625 -26.296875 L 9.40625 4.40625 C 9.40625 5.832031 9.828125 6.785156 10.671875 7.265625 C 11.523438 7.753906 12.703125 8 14.203125 8 L 14.203125 9.046875 C 13.460938 9.015625 12.441406 8.972656 11.140625 8.921875 C 9.847656 8.867188 8.46875 8.84375 7 8.84375 C 5.96875 8.84375 4.941406 8.867188 3.921875 8.921875 C 2.910156 8.972656 2.132812 9.015625 1.59375 9.046875 L 1.59375 8 C 2.800781 8 3.65625 7.78125 4.15625 7.34375 C 4.65625 6.914062 4.90625 6.101562 4.90625 4.90625 L 4.90625 -20.296875 C 4.90625 -21.796875 4.632812 -22.90625 4.09375 -23.625 C 3.5625 -24.34375 2.5625 -24.703125 1.09375 -24.703125 L 1.09375 -25.75 C 2.164062 -25.644531 3.203125 -25.59375 4.203125 -25.59375 C 5.171875 -25.59375 6.09375 -25.648438 6.96875 -25.765625 C 7.851562 -25.890625 8.664062 -26.066406 9.40625 -26.296875 Z M 17.40625 -26.453125 C 19.164062 -26.453125 20.742188 -25.972656 22.140625 -25.015625 C 23.546875 -24.066406 24.65625 -22.675781 25.46875 -20.84375 C 26.289062 -19.007812 26.703125 -16.742188 26.703125 -14.046875 C 26.703125 -12.242188 26.484375 -10.46875 26.046875 -8.71875 C 25.617188 -6.96875 24.945312 -5.382812 24.03125 -3.96875 C 23.113281 -2.550781 21.925781 -1.414062 20.46875 -0.5625 C 19.019531 0.28125 17.28125 0.703125 15.25 0.703125 C 13.6875 0.703125 12.328125 0.335938 11.171875 -0.390625 C 10.023438 -1.128906 9.25 -2.015625 8.84375 -3.046875 L 9.34375 -3.75 C 9.8125 -2.8125 10.488281 -2.023438 11.375 -1.390625 C 12.257812 -0.765625 13.367188 -0.453125 14.703125 -0.453125 C 16.566406 -0.453125 18.015625 -1.035156 19.046875 -2.203125 C 20.078125 -3.367188 20.800781 -4.925781 21.21875 -6.875 C 21.632812 -8.820312 21.84375 -10.976562 21.84375 -13.34375 C 21.84375 -16.007812 21.625 -18.191406 21.1875 -19.890625 C 20.757812 -21.597656 20.113281 -22.867188 19.25 -23.703125 C 18.382812 -24.535156 17.316406 -24.953125 16.046875 -24.953125 C 14.410156 -24.953125 12.925781 -24.273438 11.59375 -22.921875 C 10.257812 -21.578125 9.410156 -19.535156 9.046875 -16.796875 L 8.453125 -17.5 C 8.816406 -20.332031 9.820312 -22.53125 11.46875 -24.09375 C 13.125 -25.664062 15.101562 -26.453125 17.40625 -26.453125 Z M 17.40625 -26.453125 "/></g></g></g><g fill="#000000" fill-opacity="1"><g transform="translate(374.293, 155.60099)"><g><path d="M 8.546875 0.34375 C 7.179688 0.34375 6 0.0859375 5 -0.421875 C 4 -0.941406 3.238281 -1.664062 2.71875 -2.59375 C 2.207031 -3.53125 1.953125 -4.613281 1.953125 -5.84375 C 1.953125 -7.3125 2.289062 -8.507812 2.96875 -9.4375 C 3.65625 -10.375 4.53125 -11.125 5.59375 -11.6875 C 6.664062 -12.257812 7.789062 -12.738281 8.96875 -13.125 C 10.15625 -13.507812 11.28125 -13.875 12.34375 -14.21875 C 13.414062 -14.570312 14.289062 -14.984375 14.96875 -15.453125 C 15.65625 -15.921875 16 -16.535156 16 -17.296875 L 16 -20.40625 C 16 -21.800781 15.789062 -22.863281 15.375 -23.59375 C 14.957031 -24.332031 14.398438 -24.828125 13.703125 -25.078125 C 13.003906 -25.328125 12.21875 -25.453125 11.34375 -25.453125 C 10.507812 -25.453125 9.617188 -25.332031 8.671875 -25.09375 C 7.722656 -24.863281 6.96875 -24.382812 6.40625 -23.65625 C 7.03125 -23.519531 7.578125 -23.179688 8.046875 -22.640625 C 8.515625 -22.109375 8.75 -21.425781 8.75 -20.59375 C 8.75 -19.757812 8.484375 -19.101562 7.953125 -18.625 C 7.421875 -18.144531 6.738281 -17.90625 5.90625 -17.90625 C 4.9375 -17.90625 4.222656 -18.210938 3.765625 -18.828125 C 3.316406 -19.441406 3.09375 -20.132812 3.09375 -20.90625 C 3.09375 -21.769531 3.3125 -22.46875 3.75 -23 C 4.1875 -23.53125 4.738281 -24.03125 5.40625 -24.5 C 6.164062 -25.03125 7.15625 -25.488281 8.375 -25.875 C 9.59375 -26.257812 10.96875 -26.453125 12.5 -26.453125 C 13.863281 -26.453125 15.03125 -26.289062 16 -25.96875 C 16.96875 -25.65625 17.769531 -25.195312 18.40625 -24.59375 C 19.269531 -23.800781 19.832031 -22.828125 20.09375 -21.671875 C 20.363281 -20.523438 20.5 -19.148438 20.5 -17.546875 L 20.5 -3.65625 C 20.5 -2.820312 20.625 -2.21875 20.875 -1.84375 C 21.125 -1.476562 21.515625 -1.296875 22.046875 -1.296875 C 22.410156 -1.296875 22.757812 -1.378906 23.09375 -1.546875 C 23.425781 -1.710938 23.828125 -1.976562 24.296875 -2.34375 L 24.84375 -1.5 C 24.144531 -0.96875 23.476562 -0.523438 22.84375 -0.171875 C 22.21875 0.171875 21.367188 0.34375 20.296875 0.34375 C 19.328125 0.34375 18.523438 0.175781 17.890625 -0.15625 C 17.265625 -0.488281 16.789062 -0.976562 16.46875 -1.625 C 16.15625 -2.269531 16 -3.09375 16 -4.09375 C 15.101562 -2.59375 14.03125 -1.476562 12.78125 -0.75 C 11.53125 -0.0195312 10.117188 0.34375 8.546875 0.34375 Z M 10.34375 -1.65625 C 11.445312 -1.65625 12.472656 -1.96875 13.421875 -2.59375 C 14.367188 -3.226562 15.226562 -4.179688 16 -5.453125 L 16 -15.25 C 15.601562 -14.6875 15.019531 -14.210938 14.25 -13.828125 C 13.476562 -13.441406 12.644531 -13.054688 11.75 -12.671875 C 10.851562 -12.285156 9.992188 -11.832031 9.171875 -11.3125 C 8.359375 -10.800781 7.679688 -10.128906 7.140625 -9.296875 C 6.609375 -8.460938 6.34375 -7.378906 6.34375 -6.046875 C 6.34375 -4.710938 6.703125 -3.644531 7.421875 -2.84375 C 8.140625 -2.050781 9.113281 -1.65625 10.34375 -1.65625 Z M 10.34375 -1.65625 "/></g></g></g><g fill="#000000" fill-opacity="1"><g transform="translate(399.192047, 155.60099)"><g><path d="M 18.25 -26.453125 C 19.519531 -26.453125 20.578125 -26.285156 21.421875 -25.953125 C 22.273438 -25.617188 22.984375 -25.148438 23.546875 -24.546875 C 24.179688 -23.878906 24.628906 -23.046875 24.890625 -22.046875 C 25.160156 -21.046875 25.296875 -19.695312 25.296875 -18 L 25.296875 -4.65625 C 25.296875 -3.25 25.585938 -2.296875 26.171875 -1.796875 C 26.753906 -1.296875 27.726562 -1.046875 29.09375 -1.046875 L 29.09375 0 C 28.53125 -0.03125 27.664062 -0.0703125 26.5 -0.125 C 25.332031 -0.175781 24.195312 -0.203125 23.09375 -0.203125 C 22 -0.203125 20.925781 -0.175781 19.875 -0.125 C 18.820312 -0.0703125 18.03125 -0.03125 17.5 0 L 17.5 -1.046875 C 18.695312 -1.046875 19.546875 -1.296875 20.046875 -1.796875 C 20.546875 -2.296875 20.796875 -3.25 20.796875 -4.65625 L 20.796875 -19.09375 C 20.796875 -20.132812 20.710938 -21.085938 20.546875 -21.953125 C 20.378906 -22.816406 20.003906 -23.515625 19.421875 -24.046875 C 18.835938 -24.578125 17.945312 -24.84375 16.75 -24.84375 C 15.351562 -24.84375 14.128906 -24.441406 13.078125 -23.640625 C 12.023438 -22.847656 11.207031 -21.757812 10.625 -20.375 C 10.039062 -18.988281 9.75 -17.445312 9.75 -15.75 L 9.75 -4.65625 C 9.75 -3.25 10 -2.296875 10.5 -1.796875 C 11 -1.296875 11.847656 -1.046875 13.046875 -1.046875 L 13.046875 0 C 12.515625 -0.03125 11.722656 -0.0703125 10.671875 -0.125 C 9.617188 -0.175781 8.546875 -0.203125 7.453125 -0.203125 C 6.347656 -0.203125 5.210938 -0.175781 4.046875 -0.125 C 2.878906 -0.0703125 2.015625 -0.03125 1.453125 0 L 1.453125 -1.046875 C 2.816406 -1.046875 3.789062 -1.296875 4.375 -1.796875 C 4.957031 -2.296875 5.25 -3.25 5.25 -4.65625 L 5.25 -20.296875 C 5.25 -21.796875 4.984375 -22.90625 4.453125 -23.625 C 3.921875 -24.34375 2.921875 -24.703125 1.453125 -24.703125 L 1.453125 -25.75 C 2.515625 -25.644531 3.546875 -25.59375 4.546875 -25.59375 C 5.515625 -25.59375 6.441406 -25.648438 7.328125 -25.765625 C 8.210938 -25.890625 9.019531 -26.066406 9.75 -26.296875 L 9.75 -20.40625 C 10.613281 -22.664062 11.820312 -24.238281 13.375 -25.125 C 14.925781 -26.007812 16.550781 -26.453125 18.25 -26.453125 Z M 18.25 -26.453125 "/></g></g></g><g fill="#000000" fill-opacity="1"><g transform="translate(428.59091, 155.60099)"><g><path d="M 24.703125 -25.75 L 24.703125 -24.75 C 24.066406 -24.6875 23.484375 -24.40625 22.953125 -23.90625 C 22.421875 -23.40625 21.921875 -22.519531 21.453125 -21.25 L 13.25 0.25 L 12.40625 0.25 L 3.203125 -21.90625 C 2.566406 -23.195312 1.941406 -23.984375 1.328125 -24.265625 C 0.710938 -24.554688 0.203125 -24.703125 -0.203125 -24.703125 L -0.203125 -25.75 C 0.535156 -25.644531 1.300781 -25.566406 2.09375 -25.515625 C 2.894531 -25.472656 3.765625 -25.453125 4.703125 -25.453125 C 5.734375 -25.453125 6.820312 -25.484375 7.96875 -25.546875 C 9.125 -25.617188 10.203125 -25.6875 11.203125 -25.75 L 11.203125 -24.703125 C 10.367188 -24.703125 9.625 -24.640625 8.96875 -24.515625 C 8.320312 -24.398438 7.914062 -24.050781 7.75 -23.46875 C 7.582031 -22.882812 7.78125 -21.894531 8.34375 -20.5 L 14.5 -5.25 L 14.203125 -5.15625 L 19.90625 -20.046875 C 20.332031 -21.148438 20.503906 -22.023438 20.421875 -22.671875 C 20.335938 -23.328125 19.992188 -23.820312 19.390625 -24.15625 C 18.796875 -24.488281 17.898438 -24.6875 16.703125 -24.75 L 16.703125 -25.75 C 17.296875 -25.71875 17.8125 -25.691406 18.25 -25.671875 C 18.6875 -25.660156 19.113281 -25.644531 19.53125 -25.625 C 19.945312 -25.601562 20.40625 -25.59375 20.90625 -25.59375 C 21.664062 -25.59375 22.351562 -25.609375 22.96875 -25.640625 C 23.59375 -25.679688 24.171875 -25.71875 24.703125 -25.75 Z M 13.25 0.25 L 11.546875 4.59375 C 11.210938 5.425781 10.867188 6.125 10.515625 6.6875 C 10.171875 7.257812 9.800781 7.726562 9.40625 8.09375 C 8.863281 8.59375 8.226562 8.9375 7.5 9.125 C 6.769531 9.3125 6.101562 9.40625 5.5 9.40625 C 4.863281 9.40625 4.285156 9.285156 3.765625 9.046875 C 3.253906 8.816406 2.847656 8.472656 2.546875 8.015625 C 2.242188 7.566406 2.09375 7.03125 2.09375 6.40625 C 2.09375 5.601562 2.328125 4.957031 2.796875 4.46875 C 3.265625 3.988281 3.914062 3.75 4.75 3.75 C 5.445312 3.75 6.046875 3.945312 6.546875 4.34375 C 7.046875 4.75 7.296875 5.332031 7.296875 6.09375 C 7.296875 6.664062 7.160156 7.132812 6.890625 7.5 C 6.628906 7.863281 6.316406 8.144531 5.953125 8.34375 C 6.015625 8.382812 6.070312 8.40625 6.125 8.40625 C 6.175781 8.40625 6.21875 8.40625 6.25 8.40625 C 7.144531 8.40625 7.941406 8.09375 8.640625 7.46875 C 9.347656 6.851562 9.96875 5.863281 10.5 4.5 L 12.296875 -0.15625 Z M 13.25 0.25 "/></g></g></g></g></g></g></g></g></g></mask><clipPath id="e517c10f17"><path d="M 0.078125 1.851562 L 553.578125 1.851562 L 553.578125 268.101562 L 0.078125 268.101562 Z M 0.078125 1.851562 " clip-rule="nonzero"/></clipPath><clipPath id="9b8ea0bdf4"><rect x="0" width="554" y="0" height="271"/></clipPath><clipPath id="cce6803133"><rect x="0" width="554" y="0" height="271"/></clipPath><clipPath id="481135e70d"><rect x="0" width="556" y="0" height="271"/></clipPath><clipPath id="35b1c3731b"><path d="M 0.972656 0 L 526.992188 0 L 526.992188 373.175781 L 0.972656 373.175781 Z M 0.972656 0 " clip-rule="nonzero"/></clipPath><clipPath id="3cd993b3ba"><path d="M 0.972656 0 L 526.992188 0 L 526.992188 373.175781 L 0.972656 373.175781 Z M 0.972656 0 " clip-rule="nonzero"/></clipPath><clipPath id="5413e8a3ad"><path d="M 0.972656 0 L 526.992188 0 L 526.992188 373.175781 L 0.972656 373.175781 Z M 0.972656 0 " clip-rule="nonzero"/></clipPath><linearGradient x1="197.55499" gradientTransform="matrix(0.359035, 0, 0, 0.359058, 193.055497, 46.792879)" y1="-130.321127" x2="197.55499" gradientUnits="userSpaceOnUse" y2="909.00191" id="c54db17fa7"><stop stop-opacity="1" stop-color="rgb(52.159119%, 51.759338%, 53.729248%)" offset="0"/><stop stop-opacity="1" stop-color="rgb(52.159119%, 51.759338%, 53.729248%)" offset="0.0625"/><stop stop-opacity="1" stop-color="rgb(52.159119%, 51.759338%, 53.729248%)" offset="0.078125"/><stop stop-opacity="1" stop-color="rgb(52.159119%, 51.759338%, 53.729248%)" offset="0.0859375"/><stop stop-opacity="1" stop-color="rgb(53.665161%, 53.233337%, 55.296326%)" offset="0.0898438"/><stop stop-opacity="1" stop-color="rgb(55.171204%, 54.708862%, 56.863403%)" offset="0.09375"/><stop stop-opacity="1" stop-color="rgb(56.889343%, 56.391907%, 58.651733%)" offset="0.0976562"/><stop stop-opacity="1" stop-color="rgb(58.607483%, 58.076477%, 60.440063%)" offset="0.101562"/><stop stop-opacity="1" stop-color="rgb(60.325623%, 59.759521%, 62.228394%)" offset="0.105469"/><stop stop-opacity="1" stop-color="rgb(62.043762%, 61.442566%, 64.01825%)" offset="0.109375"/><stop stop-opacity="1" stop-color="rgb(63.761902%, 63.12561%, 65.80658%)" offset="0.113281"/><stop stop-opacity="1" stop-color="rgb(65.480042%, 64.810181%, 67.59491%)" offset="0.117188"/><stop stop-opacity="1" stop-color="rgb(67.198181%, 66.493225%, 69.38324%)" offset="0.121094"/><stop stop-opacity="1" stop-color="rgb(68.916321%, 68.17627%, 71.17157%)" offset="0.125"/><stop stop-opacity="1" stop-color="rgb(70.63446%, 69.859314%, 72.9599%)" offset="0.128906"/><stop stop-opacity="1" stop-color="rgb(72.354126%, 71.543884%, 74.74823%)" offset="0.132812"/><stop stop-opacity="1" stop-color="rgb(74.072266%, 73.226929%, 76.53656%)" offset="0.136719"/><stop stop-opacity="1" stop-color="rgb(75.790405%, 74.909973%, 78.32489%)" offset="0.140625"/><stop stop-opacity="1" stop-color="rgb(77.508545%, 76.593018%, 80.11322%)" offset="0.144531"/><stop stop-opacity="1" stop-color="rgb(79.226685%, 78.277588%, 81.903076%)" offset="0.148438"/><stop stop-opacity="1" stop-color="rgb(80.944824%, 79.960632%, 83.691406%)" offset="0.152344"/><stop stop-opacity="1" stop-color="rgb(82.662964%, 81.643677%, 85.479736%)" offset="0.15625"/><stop stop-opacity="1" stop-color="rgb(84.381104%, 83.326721%, 87.268066%)" offset="0.160156"/><stop stop-opacity="1" stop-color="rgb(86.099243%, 85.011292%, 89.056396%)" offset="0.164062"/><stop stop-opacity="1" stop-color="rgb(87.817383%, 86.694336%, 90.844727%)" offset="0.167969"/><stop stop-opacity="1" stop-color="rgb(89.537048%, 88.37738%, 92.633057%)" offset="0.171875"/><stop stop-opacity="1" stop-color="rgb(88.870239%, 87.72583%, 91.940308%)" offset="0.175781"/><stop stop-opacity="1" stop-color="rgb(88.204956%, 87.07428%, 91.247559%)" offset="0.179688"/><stop stop-opacity="1" stop-color="rgb(86.486816%, 85.389709%, 89.459229%)" offset="0.183594"/><stop stop-opacity="1" stop-color="rgb(84.768677%, 83.706665%, 87.670898%)" offset="0.1875"/><stop stop-opacity="1" stop-color="rgb(83.050537%, 82.023621%, 85.882568%)" offset="0.191406"/><stop stop-opacity="1" stop-color="rgb(81.332397%, 80.340576%, 84.094238%)" offset="0.195313"/><stop stop-opacity="1" stop-color="rgb(79.614258%, 78.656006%, 82.305908%)" offset="0.199219"/><stop stop-opacity="1" stop-color="rgb(77.896118%, 76.972961%, 80.517578%)" offset="0.203125"/><stop stop-opacity="1" stop-color="rgb(76.177979%, 75.289917%, 78.729248%)" offset="0.207031"/><stop stop-opacity="1" stop-color="rgb(74.459839%, 73.606873%, 76.940918%)" offset="0.210938"/><stop stop-opacity="1" stop-color="rgb(72.740173%, 71.922302%, 75.151062%)" offset="0.214844"/><stop stop-opacity="1" stop-color="rgb(71.022034%, 70.239258%, 73.362732%)" offset="0.21875"/><stop stop-opacity="1" stop-color="rgb(69.303894%, 68.556213%, 71.574402%)" offset="0.222656"/><stop stop-opacity="1" stop-color="rgb(67.585754%, 66.873169%, 69.786072%)" offset="0.226563"/><stop stop-opacity="1" stop-color="rgb(65.867615%, 65.188599%, 67.997742%)" offset="0.230469"/><stop stop-opacity="1" stop-color="rgb(64.149475%, 63.505554%, 66.209412%)" offset="0.234375"/><stop stop-opacity="1" stop-color="rgb(62.431335%, 61.82251%, 64.421082%)" offset="0.238281"/><stop stop-opacity="1" stop-color="rgb(60.713196%, 60.139465%, 62.632751%)" offset="0.242188"/><stop stop-opacity="1" stop-color="rgb(58.995056%, 58.454895%, 60.844421%)" offset="0.246094"/><stop stop-opacity="1" stop-color="rgb(57.276917%, 56.771851%, 59.056091%)" offset="0.25"/><stop stop-opacity="1" stop-color="rgb(55.557251%, 55.088806%, 57.266235%)" offset="0.253906"/><stop stop-opacity="1" stop-color="rgb(53.839111%, 53.405762%, 55.477905%)" offset="0.257812"/><stop stop-opacity="1" stop-color="rgb(53.465271%, 53.057861%, 55.033875%)" offset="0.261719"/><stop stop-opacity="1" stop-color="rgb(53.091431%, 52.709961%, 54.589844%)" offset="0.265625"/><stop stop-opacity="1" stop-color="rgb(54.00238%, 53.639221%, 55.430603%)" offset="0.269531"/><stop stop-opacity="1" stop-color="rgb(54.914856%, 54.568481%, 56.272888%)" offset="0.273438"/><stop stop-opacity="1" stop-color="rgb(55.825806%, 55.497742%, 57.113647%)" offset="0.277344"/><stop stop-opacity="1" stop-color="rgb(56.738281%, 56.427002%, 57.954407%)" offset="0.28125"/><stop stop-opacity="1" stop-color="rgb(57.649231%, 57.356262%, 58.795166%)" offset="0.285156"/><stop stop-opacity="1" stop-color="rgb(58.561707%, 58.287048%, 59.637451%)" offset="0.289062"/><stop stop-opacity="1" stop-color="rgb(59.472656%, 59.216309%, 60.47821%)" offset="0.292969"/><stop stop-opacity="1" stop-color="rgb(60.385132%, 60.145569%, 61.320496%)" offset="0.296875"/><stop stop-opacity="1" stop-color="rgb(61.296082%, 61.074829%, 62.161255%)" offset="0.300781"/><stop stop-opacity="1" stop-color="rgb(62.207031%, 62.005615%, 63.00354%)" offset="0.304688"/><stop stop-opacity="1" stop-color="rgb(63.117981%, 62.934875%, 63.844299%)" offset="0.308594"/><stop stop-opacity="1" stop-color="rgb(64.030457%, 63.864136%, 64.686584%)" offset="0.3125"/><stop stop-opacity="1" stop-color="rgb(64.941406%, 64.793396%, 65.527344%)" offset="0.316406"/><stop stop-opacity="1" stop-color="rgb(65.853882%, 65.722656%, 66.369629%)" offset="0.320313"/><stop stop-opacity="1" stop-color="rgb(66.764832%, 66.651917%, 67.210388%)" offset="0.324219"/><stop stop-opacity="1" stop-color="rgb(67.677307%, 67.582703%, 68.052673%)" offset="0.328125"/><stop stop-opacity="1" stop-color="rgb(68.588257%, 68.511963%, 68.893433%)" offset="0.332031"/><stop stop-opacity="1" stop-color="rgb(69.500732%, 69.441223%, 69.735718%)" offset="0.335938"/><stop stop-opacity="1" stop-color="rgb(70.411682%, 70.370483%, 70.576477%)" offset="0.339844"/><stop stop-opacity="1" stop-color="rgb(71.324158%, 71.299744%, 71.418762%)" offset="0.34375"/><stop stop-opacity="1" stop-color="rgb(71.636963%, 71.618652%, 71.707153%)" offset="0.347656"/><stop stop-opacity="1" stop-color="rgb(71.951294%, 71.939087%, 71.99707%)" offset="0.351563"/><stop stop-opacity="1" stop-color="rgb(71.038818%, 71.008301%, 71.154785%)" offset="0.355469"/><stop stop-opacity="1" stop-color="rgb(70.127869%, 70.079041%, 70.314026%)" offset="0.359375"/><stop stop-opacity="1" stop-color="rgb(69.215393%, 69.14978%, 69.471741%)" offset="0.363281"/><stop stop-opacity="1" stop-color="rgb(68.304443%, 68.22052%, 68.630981%)" offset="0.367188"/><stop stop-opacity="1" stop-color="rgb(67.391968%, 67.29126%, 67.788696%)" offset="0.371094"/><stop stop-opacity="1" stop-color="rgb(66.481018%, 66.362%, 66.947937%)" offset="0.375"/><stop stop-opacity="1" stop-color="rgb(65.568542%, 65.431213%, 66.105652%)" offset="0.378906"/><stop stop-opacity="1" stop-color="rgb(64.657593%, 64.501953%, 65.264893%)" offset="0.382813"/><stop stop-opacity="1" stop-color="rgb(63.745117%, 63.572693%, 64.422607%)" offset="0.386719"/><stop stop-opacity="1" stop-color="rgb(62.834167%, 62.643433%, 63.581848%)" offset="0.390625"/><stop stop-opacity="1" stop-color="rgb(61.921692%, 61.712646%, 62.739563%)" offset="0.394531"/><stop stop-opacity="1" stop-color="rgb(61.010742%, 60.783386%, 61.898804%)" offset="0.398438"/><stop stop-opacity="1" stop-color="rgb(60.098267%, 59.854126%, 61.056519%)" offset="0.402344"/><stop stop-opacity="1" stop-color="rgb(59.187317%, 58.924866%, 60.215759%)" offset="0.40625"/><stop stop-opacity="1" stop-color="rgb(58.274841%, 57.995605%, 59.373474%)" offset="0.410156"/><stop stop-opacity="1" stop-color="rgb(57.363892%, 57.066345%, 58.532715%)" offset="0.414063"/><stop stop-opacity="1" stop-color="rgb(56.451416%, 56.135559%, 57.69043%)" offset="0.417969"/><stop stop-opacity="1" stop-color="rgb(55.540466%, 55.206299%, 56.84967%)" offset="0.421875"/><stop stop-opacity="1" stop-color="rgb(54.627991%, 54.277039%, 56.007385%)" offset="0.425781"/><stop stop-opacity="1" stop-color="rgb(53.717041%, 53.347778%, 55.166626%)" offset="0.429688"/><stop stop-opacity="1" stop-color="rgb(53.213501%, 52.813721%, 54.748535%)" offset="0.433594"/><stop stop-opacity="1" stop-color="rgb(52.711487%, 52.279663%, 54.33197%)" offset="0.4375"/><stop stop-opacity="1" stop-color="rgb(54.605103%, 54.067993%, 56.401062%)" offset="0.441406"/><stop stop-opacity="1" stop-color="rgb(56.498718%, 55.857849%, 58.470154%)" offset="0.445312"/><stop stop-opacity="1" stop-color="rgb(58.390808%, 57.646179%, 60.53772%)" offset="0.449219"/><stop stop-opacity="1" stop-color="rgb(60.284424%, 59.434509%, 62.606812%)" offset="0.453125"/><stop stop-opacity="1" stop-color="rgb(62.17804%, 61.222839%, 64.675903%)" offset="0.457031"/><stop stop-opacity="1" stop-color="rgb(64.071655%, 63.011169%, 66.744995%)" offset="0.460938"/><stop stop-opacity="1" stop-color="rgb(65.965271%, 64.7995%, 68.814087%)" offset="0.464844"/><stop stop-opacity="1" stop-color="rgb(67.858887%, 66.58783%, 70.883179%)" offset="0.46875"/><stop stop-opacity="1" stop-color="rgb(69.752502%, 68.37616%, 72.950745%)" offset="0.472656"/><stop stop-opacity="1" stop-color="rgb(71.646118%, 70.16449%, 75.019836%)" offset="0.476562"/><stop stop-opacity="1" stop-color="rgb(73.539734%, 71.95282%, 77.088928%)" offset="0.480469"/><stop stop-opacity="1" stop-color="rgb(75.43335%, 73.742676%, 79.15802%)" offset="0.484375"/><stop stop-opacity="1" stop-color="rgb(77.326965%, 75.531006%, 81.227112%)" offset="0.488281"/><stop stop-opacity="1" stop-color="rgb(79.220581%, 77.319336%, 83.296204%)" offset="0.492188"/><stop stop-opacity="1" stop-color="rgb(81.114197%, 79.107666%, 85.36377%)" offset="0.496094"/><stop stop-opacity="1" stop-color="rgb(83.007812%, 80.895996%, 87.432861%)" offset="0.5"/><stop stop-opacity="1" stop-color="rgb(84.901428%, 82.684326%, 89.501953%)" offset="0.503906"/><stop stop-opacity="1" stop-color="rgb(86.795044%, 84.472656%, 91.571045%)" offset="0.507812"/><stop stop-opacity="1" stop-color="rgb(88.68866%, 86.260986%, 93.640137%)" offset="0.511719"/><stop stop-opacity="1" stop-color="rgb(90.582275%, 88.049316%, 95.709229%)" offset="0.515625"/><stop stop-opacity="1" stop-color="rgb(92.475891%, 89.837646%, 97.776794%)" offset="0.519531"/><stop stop-opacity="1" stop-color="rgb(94.369507%, 91.627502%, 99.845886%)" offset="0.523438"/><stop stop-opacity="1" stop-color="rgb(94.439697%, 91.693115%, 99.92218%)" offset="0.53125"/><stop stop-opacity="1" stop-color="rgb(94.509888%, 91.758728%, 100%)" offset="0.5625"/><stop stop-opacity="1" stop-color="rgb(94.509888%, 91.758728%, 100%)" offset="0.625"/><stop stop-opacity="1" stop-color="rgb(94.509888%, 91.758728%, 100%)" offset="0.75"/><stop stop-opacity="1" stop-color="rgb(94.509888%, 91.758728%, 100%)" offset="1"/></linearGradient><clipPath id="468f19d4db"><rect x="0" width="527" y="0" height="374"/></clipPath><clipPath id="7a431b20b0"><path d="M 0.972656 0 L 526.992188 0 L 526.992188 373.175781 L 0.972656 373.175781 Z M 0.972656 0 " clip-rule="nonzero"/></clipPath><clipPath id="3334fcd9ed"><rect x="0" width="527" y="0" height="374"/></clipPath><clipPath id="42a7187585"><rect x="0" width="527" y="0" height="374"/></clipPath><mask id="39c8a5d6c0"><g filter="url(#dbfef4b1ae)"><g><g clip-path="url(#42a7187585)"><g clip-path="url(#7a431b20b0)"><g><g clip-path="url(#3334fcd9ed)"><g fill="#000000" fill-opacity="1"><g transform="translate(193.067567, 126.503844)"><g><path d="M 44.1875 14.3125 C 44.1875 13.03125 44.265625 11.734375 44.421875 10.421875 C 44.578125 9.109375 44.753906 7.84375 44.953125 6.625 L 47.921875 -15.078125 C 47.085938 -15.078125 46 -14.867188 44.65625 -14.453125 C 43.3125 -14.035156 42.191406 -13.734375 41.296875 -13.546875 C 37.972656 -12.585938 34.289062 -11.273438 30.25 -9.609375 C 26.21875 -7.941406 22.28125 -6.097656 18.4375 -4.078125 C 14.59375 -2.066406 11.265625 -0.0351562 8.453125 2.015625 C 7.878906 2.460938 7.507812 2.796875 7.34375 3.015625 C 7.1875 3.242188 7.078125 3.804688 7.015625 4.703125 C 7.015625 5.535156 6.976562 6.160156 6.90625 6.578125 C 6.84375 6.992188 6.8125 7.554688 6.8125 8.265625 C 7.96875 8.265625 9.21875 8.164062 10.5625 7.96875 C 11.90625 7.78125 13.1875 7.6875 14.40625 7.6875 C 15.625 7.625 16.835938 7.570312 18.046875 7.53125 C 19.265625 7.5 20.484375 7.484375 21.703125 7.484375 C 25.285156 7.484375 28.835938 7.820312 32.359375 8.5 C 35.890625 9.175781 39.160156 10.664062 42.171875 12.96875 C 42.546875 13.289062 42.84375 13.5625 43.0625 13.78125 C 43.289062 14.007812 43.664062 14.1875 44.1875 14.3125 Z M 48.59375 -18.53125 C 48.851562 -19.75 49.078125 -21.015625 49.265625 -22.328125 C 49.460938 -23.640625 49.65625 -24.90625 49.84375 -26.125 C 50.351562 -28.8125 51.007812 -32.078125 51.8125 -35.921875 C 52.613281 -39.765625 53.492188 -43.75 54.453125 -47.875 C 55.421875 -52.007812 56.382812 -55.914062 57.34375 -59.59375 C 58.300781 -63.28125 59.195312 -66.367188 60.03125 -68.859375 C 60.726562 -70.910156 61.191406 -72.320312 61.421875 -73.09375 C 61.648438 -73.863281 62.144531 -74.25 62.90625 -74.25 C 63.164062 -74.25 63.421875 -74.226562 63.671875 -74.1875 C 63.929688 -74.15625 64.191406 -74.109375 64.453125 -74.046875 C 64.640625 -73.023438 64.6875 -72.160156 64.59375 -71.453125 C 64.5 -70.753906 64.320312 -70.019531 64.0625 -69.25 C 63.800781 -68.476562 63.484375 -67.421875 63.109375 -66.078125 C 62.660156 -64.347656 62.066406 -61.914062 61.328125 -58.78125 C 60.585938 -55.644531 59.785156 -52.171875 58.921875 -48.359375 C 58.054688 -44.546875 57.222656 -40.75 56.421875 -36.96875 C 55.628906 -33.195312 54.941406 -29.773438 54.359375 -26.703125 C 53.785156 -23.628906 53.4375 -21.257812 53.3125 -19.59375 C 53.625 -19.71875 54.179688 -19.859375 54.984375 -20.015625 C 55.785156 -20.179688 56.601562 -20.34375 57.4375 -20.5 C 58.269531 -20.664062 58.878906 -20.78125 59.265625 -20.84375 C 59.960938 -20.96875 61.335938 -21.238281 63.390625 -21.65625 C 65.441406 -22.070312 67.726562 -22.472656 70.25 -22.859375 C 72.78125 -23.242188 75.039062 -23.4375 77.03125 -23.4375 C 78.5 -23.4375 79.710938 -23.273438 80.671875 -22.953125 C 81.640625 -22.628906 82.054688 -22.050781 81.921875 -21.21875 C 81.859375 -20.769531 81.664062 -20.46875 81.34375 -20.3125 C 81.03125 -20.15625 80.648438 -20.078125 80.203125 -20.078125 C 79.941406 -20.078125 79.632812 -20.09375 79.28125 -20.125 C 78.9375 -20.15625 78.601562 -20.171875 78.28125 -20.171875 C 78.21875 -20.171875 78.132812 -20.171875 78.03125 -20.171875 C 77.9375 -20.171875 77.859375 -20.171875 77.796875 -20.171875 C 75.171875 -20.171875 72.335938 -19.914062 69.296875 -19.40625 C 66.253906 -18.894531 63.453125 -18.445312 60.890625 -18.0625 L 52.640625 -16.328125 L 48.03125 14.984375 C 47.644531 17.285156 47.453125 18.882812 47.453125 19.78125 C 47.453125 20.675781 47.515625 21.269531 47.640625 21.5625 C 47.765625 21.851562 47.90625 22.1875 48.0625 22.5625 C 48.226562 22.945312 48.3125 23.78125 48.3125 25.0625 C 48.3125 26.40625 48.3125 27.476562 48.3125 28.28125 C 48.3125 29.082031 48.242188 29.867188 48.109375 30.640625 C 47.984375 31.410156 47.726562 32.5 47.34375 33.90625 C 46.96875 35.375 46.519531 36.394531 46 36.96875 C 45.488281 37.550781 44.976562 37.84375 44.46875 37.84375 C 43.894531 37.84375 43.414062 37.601562 43.03125 37.125 C 42.644531 36.644531 42.453125 36.113281 42.453125 35.53125 C 42.453125 32.84375 42.546875 30.617188 42.734375 28.859375 C 42.929688 27.097656 43.0625 25.097656 43.125 22.859375 C 43.1875 21.253906 43.234375 20.113281 43.265625 19.4375 C 43.296875 18.769531 43.117188 18.195312 42.734375 17.71875 C 42.359375 17.238281 41.625 16.550781 40.53125 15.65625 C 38.800781 14.1875 36.492188 12.96875 33.609375 12 C 30.734375 11.039062 27.691406 10.5625 24.484375 10.5625 C 23.722656 10.5625 22.425781 10.578125 20.59375 10.609375 C 18.769531 10.640625 16.816406 10.671875 14.734375 10.703125 C 12.660156 10.734375 10.867188 10.796875 9.359375 10.890625 C 7.859375 10.992188 7.007812 11.140625 6.8125 11.328125 L 5.578125 23.8125 C 5.441406 24.90625 5.34375 26.007812 5.28125 27.125 C 5.21875 28.25 5.1875 29.320312 5.1875 30.34375 L 4.21875 43.40625 C 4.15625 44.625 4.109375 45.679688 4.078125 46.578125 C 4.046875 47.472656 3.359375 47.921875 2.015625 47.921875 C 1.503906 47.921875 1.070312 47.632812 0.71875 47.0625 C 0.363281 46.488281 0.1875 45.910156 0.1875 45.328125 C 0.1875 41.742188 0.265625 38.316406 0.421875 35.046875 C 0.585938 31.785156 0.671875 28.679688 0.671875 25.734375 C 0.671875 24.003906 0.847656 21.78125 1.203125 19.0625 C 1.554688 16.34375 1.734375 13.703125 1.734375 11.140625 C -0.128906 11.015625 -0.992188 10.195312 -0.859375 8.6875 C -0.734375 7.1875 0 5.765625 1.34375 4.421875 C 2.113281 3.648438 2.515625 3.007812 2.546875 2.5 C 2.578125 1.988281 2.625 1.09375 2.6875 -0.1875 C 2.8125 -1.976562 2.984375 -3.785156 3.203125 -5.609375 C 3.429688 -7.441406 3.546875 -9.253906 3.546875 -11.046875 L 4.609375 -22 C 5.628906 -29.675781 6.734375 -37.359375 7.921875 -45.046875 C 9.109375 -52.734375 10.46875 -60.382812 12 -68 C 12.320312 -69.28125 12.5 -70.160156 12.53125 -70.640625 C 12.5625 -71.117188 12.640625 -71.4375 12.765625 -71.59375 C 12.898438 -71.757812 13.191406 -71.9375 13.640625 -72.125 C 13.640625 -72.125 13.6875 -72.1875 13.78125 -72.3125 C 13.875 -72.445312 14.050781 -72.515625 14.3125 -72.515625 C 14.632812 -72.515625 14.953125 -72.382812 15.265625 -72.125 C 15.785156 -71.75 16.078125 -71 16.140625 -69.875 C 16.203125 -68.75 16.148438 -67.5 15.984375 -66.125 C 15.828125 -64.75 15.632812 -63.5 15.40625 -62.375 C 15.1875 -61.257812 15.046875 -60.507812 14.984375 -60.125 C 14.535156 -57.6875 14.035156 -54.628906 13.484375 -50.953125 C 12.941406 -47.273438 12.382812 -43.382812 11.8125 -39.28125 C 11.238281 -35.1875 10.726562 -31.28125 10.28125 -27.5625 C 9.832031 -23.851562 9.507812 -20.75 9.3125 -18.25 C 9.0625 -15.5 8.726562 -12.695312 8.3125 -9.84375 C 7.894531 -7 7.6875 -4.132812 7.6875 -1.25 C 8 -1.3125 9.128906 -1.96875 11.078125 -3.21875 C 13.035156 -4.46875 15.773438 -6.019531 19.296875 -7.875 C 22.828125 -9.726562 27.054688 -11.613281 31.984375 -13.53125 C 36.910156 -15.457031 42.445312 -17.125 48.59375 -18.53125 Z M 48.59375 -18.53125 "/></g></g></g><g fill="#000000" fill-opacity="1"><g transform="translate(269.521905, 126.503844)"><g><path d="M -0.953125 6.25 C -0.953125 0.164062 -0.441406 -5.816406 0.578125 -11.703125 C 1.597656 -17.597656 2.890625 -23.21875 4.453125 -28.5625 C 6.023438 -33.914062 7.675781 -38.769531 9.40625 -43.125 C 10.625 -46.195312 12.097656 -49.445312 13.828125 -52.875 C 15.554688 -56.300781 17.523438 -59.566406 19.734375 -62.671875 C 21.941406 -65.773438 24.328125 -68.351562 26.890625 -70.40625 C 28.679688 -71.8125 30.648438 -72.992188 32.796875 -73.953125 C 34.941406 -74.910156 37.039062 -75.390625 39.09375 -75.390625 C 40.625 -75.390625 42.09375 -75.050781 43.5 -74.375 C 44.914062 -73.707031 46.164062 -72.640625 47.25 -71.171875 C 48.726562 -69.054688 49.546875 -67.050781 49.703125 -65.15625 C 49.859375 -63.269531 49.9375 -61.113281 49.9375 -58.6875 C 49.9375 -56.570312 49.617188 -54.1875 48.984375 -51.53125 C 48.347656 -48.875 47.5 -46.132812 46.4375 -43.3125 C 45.382812 -40.5 44.296875 -37.796875 43.171875 -35.203125 C 42.054688 -32.609375 41.015625 -30.351562 40.046875 -28.4375 C 39.734375 -27.664062 39.445312 -27.070312 39.1875 -26.65625 C 38.925781 -26.238281 38.316406 -25.929688 37.359375 -25.734375 C 36.523438 -26.316406 36.125 -26.832031 36.15625 -27.28125 C 36.1875 -27.726562 36.425781 -28.398438 36.875 -29.296875 C 37.132812 -29.992188 37.390625 -30.628906 37.640625 -31.203125 C 37.898438 -31.785156 38.160156 -32.398438 38.421875 -33.046875 C 40.335938 -37.460938 42.113281 -41.988281 43.75 -46.625 C 45.382812 -51.269531 46.203125 -56.1875 46.203125 -61.375 C 46.203125 -64.632812 45.53125 -67.015625 44.1875 -68.515625 C 42.84375 -70.023438 41.175781 -70.78125 39.1875 -70.78125 C 35.789062 -70.78125 32.429688 -69.117188 29.109375 -65.796875 C 26.347656 -63.035156 23.796875 -59.65625 21.453125 -55.65625 C 19.117188 -51.65625 17.023438 -47.363281 15.171875 -42.78125 C 13.316406 -38.207031 11.71875 -33.644531 10.375 -29.09375 C 9.03125 -24.550781 7.972656 -20.359375 7.203125 -16.515625 C 6.304688 -12.296875 5.535156 -7.671875 4.890625 -2.640625 C 4.253906 2.378906 4.03125 7.40625 4.21875 12.4375 C 4.414062 17.46875 5.316406 22.125 6.921875 26.40625 C 7.742188 29.101562 9.097656 31.457031 10.984375 33.46875 C 12.878906 35.488281 15.363281 36.5 18.4375 36.5 C 21.195312 36.5 23.890625 35.773438 26.515625 34.328125 C 29.140625 32.890625 31.410156 31.4375 33.328125 29.96875 L 36.59375 27.078125 C 37.226562 26.503906 37.800781 26.023438 38.3125 25.640625 C 38.832031 25.253906 39.410156 24.742188 40.046875 24.109375 C 43.566406 20.523438 46.734375 16.632812 49.546875 12.4375 C 52.367188 8.238281 55.015625 3.867188 57.484375 -0.671875 C 59.953125 -5.210938 62.335938 -9.695312 64.640625 -14.125 C 65.210938 -15.207031 65.769531 -15.957031 66.3125 -16.375 C 66.863281 -16.789062 67.363281 -17 67.8125 -17 C 68.257812 -17 68.609375 -16.835938 68.859375 -16.515625 C 69.117188 -16.203125 69.25 -15.882812 69.25 -15.5625 L 54.9375 10.5625 C 54.039062 11.90625 53.160156 13.21875 52.296875 14.5 C 51.429688 15.78125 50.519531 17.0625 49.5625 18.34375 C 48.21875 20.132812 46.390625 22.28125 44.078125 24.78125 C 41.773438 27.28125 39.195312 29.726562 36.34375 32.125 C 33.5 34.53125 30.539062 36.515625 27.46875 38.078125 C 24.394531 39.648438 21.351562 40.4375 18.34375 40.4375 C 15.144531 40.4375 12.40625 39.648438 10.125 38.078125 C 7.851562 36.515625 6 34.453125 4.5625 31.890625 C 3.125 29.328125 2.003906 26.523438 1.203125 23.484375 C 0.398438 20.441406 -0.15625 17.414062 -0.46875 14.40625 C -0.789062 11.394531 -0.953125 8.675781 -0.953125 6.25 Z M -0.953125 6.25 "/></g></g></g></g></g></g></g></g></g></mask><clipPath id="dd2b6f88c6"><path d="M 0.972656 0 L 526.992188 0 L 526.992188 373.175781 L 0.972656 373.175781 Z M 0.972656 0 " clip-rule="nonzero"/></clipPath><clipPath id="1cd34a05f7"><rect x="0" width="527" y="0" height="374"/></clipPath><clipPath id="fce3d05773"><rect x="0" width="527" y="0" height="374"/></clipPath><clipPath id="520fec725e"><rect x="0" width="528" y="0" height="374"/></clipPath></defs><rect x="-75" width="900" fill="#ffffff" y="-37.499999" height="449.999989" fill-opacity="1"/><rect x="-75" width="900" fill="#ffffff" y="-37.499999" height="449.999989" fill-opacity="1"/><g mask="url(#976eb97657)"><g transform="matrix(1, 0, 0, 1, 0, 0)"><g clip-path="url(#34e4461336)"><g transform="matrix(1, 0, 0, 1, 0, 0)"><g clip-path="url(#285c85be57)"><g clip-path="url(#3d012b4db0)"><rect x="-273" width="1296" fill="#0b0d10" y="-136.499997" height="647.999984" fill-opacity="1"/></g></g></g></g></g></g><g transform="matrix(1, 0, 0, 1, 0, 67)"><g clip-path="url(#5653eb9cf2)"><g clip-path="url(#d0502704c1)"><g transform="matrix(1, 0, 0, 1, 0, 0)"><g clip-path="url(#26f3154c28)"><g clip-path="url(#04b8e1f396)"><g mask="url(#6e99aa1486)"><g transform="matrix(1, 0, 0, 1, 0, 0)"><g clip-path="url(#2271a5d998)"><g clip-path="url(#94d433aa30)"><path fill="url(#061431d66a)" d="M 0 2.613281 L 0 308 L 750 308 L 750 2.613281 Z M 0 2.613281 " fill-rule="nonzero"/></g></g></g></g></g></g></g></g></g></g><g transform="matrix(1, 0, 0, 1, 97, 66)"><g clip-path="url(#481135e70d)"><g clip-path="url(#340b208fd7)"><g transform="matrix(1, 0, 0, 1, 1, 0)"><g clip-path="url(#cce6803133)"><g clip-path="url(#1ade2a22a7)"><g mask="url(#10037bcf4c)"><g><g clip-path="url(#9b8ea0bdf4)"><g clip-path="url(#e517c10f17)"><path fill="url(#b55311eb9c)" d="M 0.078125 1.851562 L 0.078125 268.101562 L 553.578125 268.101562 L 553.578125 1.851562 Z M 0.078125 1.851562 " fill-rule="nonzero"/></g></g></g></g></g></g></g></g></g></g><g transform="matrix(1, 0, 0, 1, 111, 0)"><g clip-path="url(#520fec725e)"><g clip-path="url(#35b1c3731b)"><g><g clip-path="url(#fce3d05773)"><g clip-path="url(#3cd993b3ba)"><g mask="url(#39c8a5d6c0)"><g><g clip-path="url(#1cd34a05f7)"><g clip-path="url(#dd2b6f88c6)"><path fill="url(#c54db17fa7)" d="M 0.972656 0 L 0.972656 373.175781 L 526.992188 373.175781 L 526.992188 0 Z M 0.972656 0 " fill-rule="nonzero"/></g></g></g></g></g></g></g></g></g></g></svg>